<?xml version="1.0" encoding="UTF-8"?>
<svg version="1.1" xmlns="http://www.w3.org/2000/svg" width="1280" height="460">
<path d="M0 0 C1.59242034 0.44150574 3.18487118 0.88290146 4.77734375 1.32421875 C10.05797584 2.90060059 14.73419799 5.18355456 19.5625 7.8125 C20.39386475 8.25899902 21.22522949 8.70549805 22.08178711 9.16552734 C46.10845425 22.20391359 66.94946624 41.78674555 80 66 C80 66.99 80 67.98 80 69 C80.66 69 81.32 69 82 69 C83.69877174 72.65269498 85.35936007 76.3208404 87 80 C87.30679687 80.66644531 87.61359375 81.33289063 87.9296875 82.01953125 C90.16063532 87.29790779 90.74994594 92.66878035 91.375 98.33984375 C91.87395553 101.26185209 92.44210364 103.14681362 93.53125 105.80859375 C96.10483006 113.23195989 95.54113409 121.35997594 95.5 129.125 C95.49890228 129.96915466 95.49780457 130.81330933 95.49667358 131.68304443 C95.42835287 149.97868213 93.27633154 167.42255749 85 184 C84.54882812 184.97582031 84.09765625 185.95164062 83.6328125 186.95703125 C80.07639781 194.44472595 75.73757099 201.21110961 71 208 C70.48824219 208.76183594 69.97648438 209.52367187 69.44921875 210.30859375 C68.3554966 211.91207431 67.18680339 213.46413679 66 215 C65.34 215 64.68 215 64 215 C63.74025391 215.58426758 63.48050781 216.16853516 63.21289062 216.77050781 C61.915344 219.15561164 60.50658878 220.75190637 58.59375 222.671875 C57.93246094 223.33574219 57.27117187 223.99960937 56.58984375 224.68359375 C55.90019531 225.36550781 55.21054687 226.04742187 54.5 226.75 C53.81035156 227.44738281 53.12070312 228.14476562 52.41015625 228.86328125 C51.74886719 229.52199219 51.08757812 230.18070313 50.40625 230.859375 C49.80103516 231.46233398 49.19582031 232.06529297 48.57226562 232.68652344 C47 234 47 234 45 234 C45 234.66 45 235.32 45 236 C42.70400115 237.81359484 40.41562173 239.48312126 38 241.125 C37.28030029 241.61564941 36.56060059 242.10629883 35.8190918 242.61181641 C12.80165788 257.96678537 -12.30648278 265.17279876 -39.8125 265.1875 C-41.00681641 265.19974609 -42.20113281 265.21199219 -43.43164062 265.22460938 C-51.16877615 265.23724487 -58.42001764 264.52546722 -66 263 C-66.80155518 262.84861572 -67.60311035 262.69723145 -68.42895508 262.54125977 C-78.1246384 260.67045718 -87.05634789 258.27892376 -96 254 C-96 253.34 -96 252.68 -96 252 C-97.2065625 251.938125 -97.2065625 251.938125 -98.4375 251.875 C-102.694798 250.82934786 -105.42310065 248.90844582 -108.94921875 246.375 C-111.04736285 244.83662546 -111.04736285 244.83662546 -114 244 C-114 243.34 -114 242.68 -114 242 C-114.72574219 241.7421875 -115.45148438 241.484375 -116.19921875 241.21875 C-119.12047667 239.94757501 -121.30872649 238.45983598 -123.8125 236.5 C-124.60269531 235.8915625 -125.39289063 235.283125 -126.20703125 234.65625 C-127.09455078 233.83640625 -127.09455078 233.83640625 -128 233 C-128 232.34 -128 231.68 -128 231 C-128.56203125 230.7628125 -129.1240625 230.525625 -129.703125 230.28125 C-132.51894042 228.71052303 -134.47955416 226.78528536 -136.75 224.5 C-137.54921875 223.7059375 -138.3484375 222.911875 -139.171875 222.09375 C-141 220 -141 220 -141 218 C-141.66 218 -142.32 218 -143 218 C-144.56656536 216.13617367 -146.01060769 214.2787991 -147.4375 212.3125 C-148.21996094 211.25675781 -149.00242187 210.20101562 -149.80859375 209.11328125 C-155 201.73796791 -155 201.73796791 -155 199 C-155.66 199 -156.32 199 -157 199 C-163.76404333 185.89030777 -170.11647641 172.75426809 -172 158 C-172.33 157.67 -172.66 157.34 -173 157 C-174.92764616 148.03054438 -175.31054402 139.14214729 -175.25 130 C-175.26160156 128.24816406 -175.26160156 128.24816406 -175.2734375 126.4609375 C-175.22635417 105.22635417 -175.22635417 105.22635417 -172 102 C-171.6992016 100.19223141 -171.43500834 98.3783322 -171.1875 96.5625 C-170.22552146 90.57842764 -168.49589298 85.49782611 -166 80 C-165.59394531 79.08089844 -165.18789062 78.16179687 -164.76953125 77.21484375 C-162.32012639 71.73571349 -159.72412127 66.34734916 -157 61 C-156.34 61 -155.68 61 -155 61 C-154.67 59.35 -154.34 57.7 -154 56 C-153.34 56 -152.68 56 -152 56 C-151.74734375 55.27683594 -151.4946875 54.55367187 -151.234375 53.80859375 C-145.22209742 40.12875963 -128.67827024 25.56000559 -116 18 C-115.34 18 -114.68 18 -114 18 C-114 17.34 -114 16.68 -114 16 C-101.26855042 6.95274279 -85.98682234 1.74022294 -71 -2.125 C-70.34725098 -2.29596191 -69.69450195 -2.46692383 -69.02197266 -2.64306641 C-47.66597224 -7.98073608 -20.82314685 -7.32763902 0 0 Z " fill="#44377D" transform="translate(204,100)"/>
<path d="M0 0 C1.59242034 0.44150574 3.18487118 0.88290146 4.77734375 1.32421875 C10.05797584 2.90060059 14.73419799 5.18355456 19.5625 7.8125 C20.39386475 8.25899902 21.22522949 8.70549805 22.08178711 9.16552734 C46.10845425 22.20391359 66.94946624 41.78674555 80 66 C80 66.99 80 67.98 80 69 C80.66 69 81.32 69 82 69 C90 86.20158103 90 86.20158103 90 91 C4.2 91 -81.6 91 -170 91 C-167.98215108 84.27383692 -166.18641344 78.99424311 -163 73 C-161.91239317 70.83547535 -160.8292683 68.66869442 -159.75 66.5 C-158.83333333 64.66666667 -157.91666667 62.83333333 -157 61 C-156.34 61 -155.68 61 -155 61 C-154.67 59.35 -154.34 57.7 -154 56 C-153.34 56 -152.68 56 -152 56 C-151.74734375 55.27683594 -151.4946875 54.55367187 -151.234375 53.80859375 C-145.22209742 40.12875963 -128.67827024 25.56000559 -116 18 C-115.34 18 -114.68 18 -114 18 C-114 17.34 -114 16.68 -114 16 C-101.26855042 6.95274279 -85.98682234 1.74022294 -71 -2.125 C-70.34725098 -2.29596191 -69.69450195 -2.46692383 -69.02197266 -2.64306641 C-47.66597224 -7.98073608 -20.82314685 -7.32763902 0 0 Z " fill="#2C2255" transform="translate(204,100)"/>
<path d="M0 0 C1.37524895 1.29005654 2.71650014 2.61862978 4 4 C5.03125 4.804375 6.0625 5.60875 7.125 6.4375 C17.47348759 15.34252902 23.1353542 26.5067051 28 39 C28.53947266 40.2684375 28.53947266 40.2684375 29.08984375 41.5625 C32.29278306 50.14032888 33.32370638 59.36760077 33.7890625 68.453125 C33.84027783 70.9904407 33.84027783 70.9904407 35 73 C35.09792892 75.5115887 35.13907983 77.98909766 35.125 80.5 C35.12886719 81.18964844 35.13273438 81.87929687 35.13671875 82.58984375 C35.12666646 87.74666707 35.12666646 87.74666707 34 90 C33.80397525 91.52131073 33.65625693 93.04902505 33.53515625 94.578125 C33.45716797 95.49207031 33.37917969 96.40601563 33.29882812 97.34765625 C33.14256554 99.26671581 32.98887587 101.18598678 32.83789062 103.10546875 C32.41273792 108.03447488 31.8352944 112.36171053 30 117 C29.46632813 118.50626953 29.46632813 118.50626953 28.921875 120.04296875 C25.12164937 130.24024086 20.62218711 140.98752018 13 149 C12.34 149 11.68 149 11 149 C10.79375 149.556875 10.5875 150.11375 10.375 150.6875 C8.42316968 153.97012371 6.05769006 155.70673246 3 158 C2.34 158 1.68 158 1 158 C0.67 158.99 0.34 159.98 0 161 C-1.92578125 162.38671875 -1.92578125 162.38671875 -4.3125 163.6875 C-5.09238281 164.12449219 -5.87226562 164.56148437 -6.67578125 165.01171875 C-9 166 -9 166 -13 166 C-13 166.66 -13 167.32 -13 168 C-29.76090544 172.73249095 -46.52694655 172.63497709 -63 167 C-64.12535156 166.62617188 -65.25070312 166.25234375 -66.41015625 165.8671875 C-67.26480469 165.58101562 -68.11945312 165.29484375 -69 165 C-69 164.34 -69 163.68 -69 163 C-69.99 163 -70.98 163 -72 163 C-72 162.34 -72 161.68 -72 161 C-72.680625 160.79375 -73.36125 160.5875 -74.0625 160.375 C-80.49244166 157.36524007 -84.15939041 152.86133058 -88 147 C-87.99777939 148.01033295 -87.99555878 149.02066589 -87.99327087 150.06161499 C-87.97302837 159.56761968 -87.9580225 169.07362002 -87.94818783 178.57964134 C-87.94296183 183.46716584 -87.93586929 188.35467299 -87.92456055 193.2421875 C-87.91372165 197.95596106 -87.90772103 202.6697179 -87.90512276 207.38350296 C-87.90327032 209.1848947 -87.89965317 210.98628549 -87.89426994 212.78767014 C-87.88704624 215.30426791 -87.88600963 217.82079593 -87.88647461 220.33740234 C-87.88287933 221.08762161 -87.87928406 221.83784088 -87.87557983 222.61079407 C-87.88594784 227.77189568 -87.88594784 227.77189568 -89 230 C-93.39656173 230.02465504 -97.7930872 230.04283842 -102.18969727 230.05493164 C-103.68644918 230.05997121 -105.18319616 230.06680287 -106.67993164 230.07543945 C-108.82699807 230.08752159 -110.97399962 230.09323191 -113.12109375 230.09765625 C-114.4145874 230.10289307 -115.70808105 230.10812988 -117.04077148 230.11352539 C-120 230 -120 230 -121 229 C-121.10022389 226.00613148 -121.13438078 223.03525356 -121.12698364 220.04089355 C-121.12854363 219.089277 -121.13010362 218.13766044 -121.13171089 217.15720701 C-121.13572529 213.94267992 -121.13252955 210.72819939 -121.12939453 207.51367188 C-121.13074838 205.2196093 -121.13252821 202.92554693 -121.13470459 200.63148499 C-121.13928091 194.38167098 -121.13748855 188.1318734 -121.1343255 181.8820591 C-121.13180292 175.35752949 -121.13413915 168.83300134 -121.13571167 162.30847168 C-121.13765054 150.64634674 -121.13453269 138.98422934 -121.12945233 127.32210559 C-121.12498429 116.73768256 -121.12576022 106.15327049 -121.13037109 95.56884766 C-121.13571673 83.29192845 -121.13771776 71.01501706 -121.13475883 58.73809671 C-121.13319558 52.23400007 -121.13300358 45.72991099 -121.13629532 39.22581482 C-121.1391728 33.1126524 -121.13720061 26.99951079 -121.13140106 20.88635063 C-121.1300728 18.63564018 -121.13046869 16.38492799 -121.13266373 14.13421822 C-121.13537265 11.07582354 -121.13199728 8.01749672 -121.12698364 4.95910645 C-121.12921436 4.05611045 -121.13144509 3.15311446 -121.13374341 2.22275496 C-121.11414981 -3.88585019 -121.11414981 -3.88585019 -120 -5 C-117.70848583 -5.08790975 -115.41427476 -5.10694038 -113.12109375 -5.09765625 C-112.09110008 -5.09553383 -112.09110008 -5.09553383 -111.04029846 -5.09336853 C-108.83932199 -5.08775479 -106.63844591 -5.07520007 -104.4375 -5.0625 C-102.94856917 -5.05748676 -101.45963676 -5.05292355 -99.97070312 -5.04882812 C-96.31376925 -5.03778093 -92.65689442 -5.02050713 -89 -5 C-87.74566542 -1.23699626 -87.89304578 2.27210909 -87.9375 6.1875 C-87.94201172 6.93708984 -87.94652344 7.68667969 -87.95117188 8.45898438 C-87.96293646 10.30602383 -87.98087135 12.15302213 -88 14 C-87.57589844 13.49210937 -87.15179687 12.98421875 -86.71484375 12.4609375 C-78.39706239 2.69896993 -69.54062078 -4.60490808 -57 -8 C-56.31035156 -8.20625 -55.62070312 -8.4125 -54.91015625 -8.625 C-36.20301936 -13.35931935 -16.31786456 -9.89283836 0 0 Z M-71 26 C-71.33 26.99 -71.66 27.98 -72 29 C-72.99 29.33 -73.98 29.66 -75 30 C-76.21869929 32.50447516 -76.21869929 32.50447516 -77 35 C-77.66 35 -78.32 35 -79 35 C-79.96238036 37.03976214 -80.91972527 39.08190046 -81.875 41.125 C-82.40867187 42.26195312 -82.94234375 43.39890625 -83.4921875 44.5703125 C-86.07971761 50.45593799 -87.4516327 55.92798038 -88.125 62.3125 C-88.2084668 63.10011719 -88.29193359 63.88773438 -88.37792969 64.69921875 C-90.03322216 81.61698344 -90.84992597 101.50291368 -83 117 C-82.70222656 117.67933594 -82.40445313 118.35867188 -82.09765625 119.05859375 C-77.59503887 128.97208181 -70.25153462 137.8557626 -60 142 C-57.24853726 142.25284367 -57.24853726 142.25284367 -55 142 C-55 142.66 -55 143.32 -55 144 C-40.14874486 144.64424158 -28.01317624 145.12931203 -16.0625 135.125 C-3.70087589 123.16429343 0.93926745 107.49168911 1.7890625 90.6171875 C2 88 2 88 3 86 C3.09608608 84.16871229 3.12982579 82.33380041 3.125 80.5 C3.12757813 79.5203125 3.13015625 78.540625 3.1328125 77.53125 C3.16940053 75.00568946 3.16940053 75.00568946 2 73 C1.84235417 71.04402397 1.72369673 69.08483504 1.625 67.125 C0.49317948 51.76940512 -4.69562829 36.93409364 -16 26 C-18.62398738 24.71530537 -18.62398738 24.71530537 -21 24 C-21 23.34 -21 22.68 -21 22 C-38.09269765 14.60577466 -55.63429606 14.63393563 -71 26 Z " fill="#2C2255" transform="translate(942,151)"/>
<path d="M0 0 C0.99999023 0.00491455 1.99998047 0.0098291 3.03027344 0.01489258 C24.67893818 0.35478707 41.45157175 8.11976038 56.75 23.3125 C60.75 27.93941652 60.75 27.93941652 60.75 30.3125 C61.41 30.3125 62.07 30.3125 62.75 30.3125 C72.71063335 49.65353563 76.7597093 67.30522264 76.875 89.0625 C76.87983398 89.95735107 76.88466797 90.85220215 76.88964844 91.77416992 C76.88739258 92.6066626 76.88513672 93.43915527 76.8828125 94.296875 C76.88168457 95.04678711 76.88055664 95.79669922 76.87939453 96.56933594 C76.75 98.3125 76.75 98.3125 75.75 99.3125 C74.10509451 99.40858663 72.45604309 99.43437787 70.80833435 99.43275452 C69.73836212 99.43412918 68.66838989 99.43550385 67.56599426 99.43692017 C66.38204575 99.43332489 65.19809723 99.42972961 63.97827148 99.42602539 C62.11999725 99.42624443 62.11999725 99.42624443 60.22418213 99.4264679 C56.81730167 99.42588892 53.41048116 99.42085959 50.00361133 99.41389394 C46.44683174 99.40765993 42.89005142 99.40705656 39.33326721 99.40586853 C32.59363418 99.40275535 25.85401729 99.39454215 19.11439139 99.38451904 C11.44341602 99.37335748 3.77243989 99.36784735 -3.89854157 99.36282361 C-19.68237041 99.35235952 -35.46618313 99.33476035 -51.25 99.3125 C-50.8140921 101.82716383 -50.3687111 104.33955082 -49.91796875 106.8515625 C-49.79740112 107.55289307 -49.6768335 108.25422363 -49.5526123 108.97680664 C-48.46992844 114.94275623 -46.59148601 120.24100229 -44.23828125 125.8359375 C-43.25 128.3125 -43.25 128.3125 -43.25 130.3125 C-42.59 130.3125 -41.93 130.3125 -41.25 130.3125 C-40.25 131.97916667 -39.25 133.64583333 -38.25 135.3125 C-33.89230968 140.16821208 -28.52112674 145.22212442 -22.25 147.3125 C-22.25 147.9725 -22.25 148.6325 -22.25 149.3125 C-20.7959375 149.4671875 -20.7959375 149.4671875 -19.3125 149.625 C-16.45533581 150.01180848 -14.12109635 150.74096654 -11.46484375 151.83984375 C-5.36876824 153.91687225 0.83009678 153.69142846 7.19140625 153.59375 C9.27361677 153.56214149 11.35507153 153.55272452 13.4375 153.546875 C19.47937946 154.08941601 19.47937946 154.08941601 24.75 152.3125 C31.31514208 150.6148471 38.00560367 149.85779162 44.75 149.3125 C44.75 148.6525 44.75 147.9925 44.75 147.3125 C45.58402344 147.08175781 46.41804687 146.85101563 47.27734375 146.61328125 C53.62817015 144.7727783 59.2571266 142.82811222 64.84765625 139.265625 C66.75 138.3125 66.75 138.3125 70.75 138.3125 C70.42 148.2125 70.09 158.1125 69.75 168.3125 C61.875 171.6875 61.875 171.6875 57.75 171.3125 C57.75 171.9725 57.75 172.6325 57.75 173.3125 C47.15552979 176.55899262 36.9790302 178.94454231 25.93359375 179.953125 C22.89335829 179.96136595 22.89335829 179.96136595 21.75 181.3125 C19.47052208 181.4127093 17.18792865 181.44331303 14.90625 181.4453125 C13.87981384 181.44674759 13.87981384 181.44674759 12.8326416 181.44821167 C11.38338123 181.4488933 9.93411782 181.44704023 8.48486328 181.44287109 C6.25937072 181.43752252 4.03407999 181.4428166 1.80859375 181.44921875 C0.40364539 181.44855797 -1.00130285 181.4472768 -2.40625 181.4453125 C-3.69337891 181.44418457 -4.98050781 181.44305664 -6.30664062 181.44189453 C-9.25 181.3125 -9.25 181.3125 -10.25 180.3125 C-12.77195967 179.91306824 -15.27963656 179.56170152 -17.8125 179.25 C-18.87887695 179.11368164 -18.87887695 179.11368164 -19.96679688 178.97460938 C-21.72738403 178.75010497 -23.48863478 178.53081603 -25.25 178.3125 C-25.25 177.6525 -25.25 176.9925 -25.25 176.3125 C-26.3225 176.27125 -27.395 176.23 -28.5 176.1875 C-36.60865534 175.19195335 -44.85482976 170.2865213 -51.25 165.3125 C-51.25 164.6525 -51.25 163.9925 -51.25 163.3125 C-51.98992187 163.06242188 -52.72984375 162.81234375 -53.4921875 162.5546875 C-56.47467336 161.21130152 -58.1183477 159.78264847 -60.375 157.4375 C-61.36886719 156.42042969 -61.36886719 156.42042969 -62.3828125 155.3828125 C-67.25 149.98614017 -67.25 149.98614017 -67.25 147.3125 C-67.91 147.3125 -68.57 147.3125 -69.25 147.3125 C-77.54687101 132.79812267 -83.3537815 119.07475972 -83.453125 102.02734375 C-83.45882507 101.24919815 -83.46452515 100.47105255 -83.47039795 99.66932678 C-83.47979673 98.02801856 -83.48636141 96.3866919 -83.49023438 94.74536133 C-83.49987844 92.28106116 -83.53092475 89.81761855 -83.5625 87.35351562 C-83.65178284 73.96193334 -81.39931612 62.08415386 -77.25 49.3125 C-76.59 49.3125 -75.93 49.3125 -75.25 49.3125 C-75.1571875 48.44109375 -75.064375 47.5696875 -74.96875 46.671875 C-72.35985627 34.47813256 -59.83561274 22.74624049 -50.25 15.3125 C-49.59 15.3125 -48.93 15.3125 -48.25 15.3125 C-48.25 14.6525 -48.25 13.9925 -48.25 13.3125 C-45.34451118 11.27080515 -43.84857954 10.3125 -40.25 10.3125 C-40.25 9.6525 -40.25 8.9925 -40.25 8.3125 C-26.88757938 3.33481709 -14.33940087 -0.08427757 0 0 Z M-26.25 33.3125 C-27.58193572 33.9819546 -28.91489521 34.64938808 -30.25 35.3125 C-30.25 35.9725 -30.25 36.6325 -30.25 37.3125 C-31.24 37.3125 -32.23 37.3125 -33.25 37.3125 C-33.25 37.9725 -33.25 38.6325 -33.25 39.3125 C-33.8378125 39.54710937 -34.425625 39.78171875 -35.03125 40.0234375 C-39.34345414 42.52876737 -41.62619239 47.18413139 -44.25 51.3125 C-44.66894531 51.96605469 -45.08789062 52.61960937 -45.51953125 53.29296875 C-48.45043537 58.441261 -49.13161922 63.72330156 -49.85546875 69.5546875 C-50.25 72.3125 -50.25 72.3125 -51.25 74.3125 C-19.57 74.3125 12.11 74.3125 44.75 74.3125 C44.75 61.57064279 42.77299181 53.79808109 35.75 43.3125 C34.76 41.8275 34.76 41.8275 33.75 40.3125 C33.09 40.3125 32.43 40.3125 31.75 40.3125 C31.75 39.6525 31.75 38.9925 31.75 38.3125 C28.29798167 35.00959808 28.29798167 35.00959808 23.75 34.3125 C23.75 33.6525 23.75 32.9925 23.75 32.3125 C21.77 31.9825 19.79 31.6525 17.75 31.3125 C17.75 30.6525 17.75 29.9925 17.75 29.3125 C15.54248152 28.97381223 13.33394089 28.64178311 11.125 28.3125 C9.89523437 28.126875 8.66546875 27.94125 7.3984375 27.75 C-4.00279459 26.3828287 -16.11299387 27.7792941 -26.25 33.3125 Z " fill="#2C2255" transform="translate(455.25,140.6875)"/>
<path d="M0 0 C0.99636475 0.00273926 1.99272949 0.00547852 3.01928711 0.00830078 C13.44932985 0.15483509 22.87407651 1.89676706 32.75 5.3125 C32.75 5.9725 32.75 6.6325 32.75 7.3125 C33.575 7.374375 34.4 7.43625 35.25 7.5 C39.66070886 8.52391456 43.23441302 10.44827812 46.75 13.3125 C46.75 13.9725 46.75 14.6325 46.75 15.3125 C47.33265625 15.5703125 47.9153125 15.828125 48.515625 16.09375 C50.9302903 17.41084017 52.56740177 18.86338384 54.5 20.8125 C55.11359375 21.4209375 55.7271875 22.029375 56.359375 22.65625 C57.75 24.3125 57.75 24.3125 57.75 26.3125 C58.41 26.3125 59.07 26.3125 59.75 26.3125 C66.48784837 34.36048555 70.5275255 44.41592914 73.20703125 54.484375 C73.59235969 56.3136985 73.59235969 56.3136985 74.75 57.3125 C74.75 71.1725 74.75 85.0325 74.75 99.3125 C33.5 99.3125 -7.75 99.3125 -50.25 99.3125 C-48.8463652 112.831487 -48.8463652 112.831487 -44.25 124.3125 C-43.94320313 125.12589844 -43.63640625 125.93929687 -43.3203125 126.77734375 C-39.86984357 134.95016979 -32.2372295 142.92278587 -24.25 146.75 C-23.59 146.935625 -22.93 147.12125 -22.25 147.3125 C-22.25 147.9725 -22.25 148.6325 -22.25 149.3125 C-20.5175 149.4671875 -20.5175 149.4671875 -18.75 149.625 C-15.69956796 149.89736 -13.70646935 150.55608689 -10.859375 151.83203125 C-4.77876758 154.18090649 1.57379532 153.74657645 8 153.6875 C9.86978516 153.70490234 9.86978516 153.70490234 11.77734375 153.72265625 C18.90750737 153.70030464 25.2764316 153.01610663 32.13696289 151.04711914 C34.72721655 150.31890525 37.2851873 149.81794805 39.9375 149.375 C44.08965382 148.57370716 47.62931837 147.21021785 51.4375 145.39453125 C54.82044743 143.81163186 58.29967147 142.49310565 61.78125 141.14453125 C63.71522095 140.47263407 63.71522095 140.47263407 64.75 139.3125 C66.4 139.3125 68.05 139.3125 69.75 139.3125 C69.75 148.8825 69.75 158.4525 69.75 168.3125 C51.09917556 175.82850388 51.09917556 175.82850388 41.75 177.3125 C41.42 177.6425 41.09 177.9725 40.75 178.3125 C34.75318593 179.48578971 28.84324251 179.4116667 22.75 179.3125 C22.75 179.9725 22.75 180.6325 22.75 181.3125 C18.21102295 181.33715392 13.67208457 181.35533789 9.13305664 181.36743164 C7.58780234 181.3724714 6.04255284 181.3793032 4.49731445 181.38793945 C2.28074971 181.40002076 0.06424782 181.40573173 -2.15234375 181.41015625 C-3.19454323 181.41789818 -3.19454323 181.41789818 -4.25779724 181.42579651 C-5.9222933 181.42599277 -7.58665499 181.37439129 -9.25 181.3125 C-9.58 180.9825 -9.91 180.6525 -10.25 180.3125 C-12.77195967 179.91306824 -15.27963656 179.56170152 -17.8125 179.25 C-18.87887695 179.11368164 -18.87887695 179.11368164 -19.96679688 178.97460938 C-21.72738403 178.75010497 -23.48863478 178.53081603 -25.25 178.3125 C-25.25 177.6525 -25.25 176.9925 -25.25 176.3125 C-26.466875 176.18875 -27.68375 176.065 -28.9375 175.9375 C-32.31479059 175.52358694 -35.14756695 174.76676549 -38.25 173.3125 C-38.25 172.6525 -38.25 171.9925 -38.25 171.3125 C-40.23 170.9825 -42.21 170.6525 -44.25 170.3125 C-44.25 169.6525 -44.25 168.9925 -44.25 168.3125 C-45.03375 168.003125 -45.8175 167.69375 -46.625 167.375 C-49.25 166.3125 -49.25 166.3125 -51.25 165.3125 C-51.25 164.6525 -51.25 163.9925 -51.25 163.3125 C-51.86875 163.003125 -52.4875 162.69375 -53.125 162.375 C-54.5 161.6875 -55.875 161 -57.25 160.3125 C-57.25 159.6525 -57.25 158.9925 -57.25 158.3125 C-58.24 157.9825 -59.23 157.6525 -60.25 157.3125 C-60.25 156.6525 -60.25 155.9925 -60.25 155.3125 C-60.91 155.3125 -61.57 155.3125 -62.25 155.3125 C-62.25 154.6525 -62.25 153.9925 -62.25 153.3125 C-62.91 153.3125 -63.57 153.3125 -64.25 153.3125 C-78.62528566 136.49332482 -83.80886425 115.61611738 -83.58618164 94.01806641 C-83.56239951 91.55207992 -83.56566923 89.08716754 -83.57226562 86.62109375 C-83.55835211 78.95286286 -83.37248897 71.73726625 -81.25 64.3125 C-81.06179688 63.41402344 -80.87359375 62.51554687 -80.6796875 61.58984375 C-78.00168531 50.29320072 -71.92805803 37.11536908 -64.25 28.3125 C-63.59 28.3125 -62.93 28.3125 -62.25 28.3125 C-62.25 27.6525 -62.25 26.9925 -62.25 26.3125 C-61.59 26.3125 -60.93 26.3125 -60.25 26.3125 C-59.99605469 25.72339844 -59.74210937 25.13429687 -59.48046875 24.52734375 C-55.07502513 16.59754523 -44.591788 10.360461 -36.25 7.3125 C-35.26 7.3125 -34.27 7.3125 -33.25 7.3125 C-33.25 6.6525 -33.25 5.9925 -33.25 5.3125 C-31.64771791 4.84762125 -30.04301541 4.39108617 -28.4375 3.9375 C-27.54417969 3.68226563 -26.65085937 3.42703125 -25.73046875 3.1640625 C-17.11457738 1.05602174 -8.87447729 -0.04991184 0 0 Z M-25.25 32.3125 C-25.25 32.9725 -25.25 33.6325 -25.25 34.3125 C-25.83265625 34.42722656 -26.4153125 34.54195312 -27.015625 34.66015625 C-29.41523135 35.36074062 -30.97860933 36.29442595 -33 37.75 C-33.61359375 38.18183594 -34.2271875 38.61367187 -34.859375 39.05859375 C-35.31828125 39.47238281 -35.7771875 39.88617188 -36.25 40.3125 C-36.25 40.9725 -36.25 41.6325 -36.25 42.3125 C-36.91 42.3125 -37.57 42.3125 -38.25 42.3125 C-38.58 43.6325 -38.91 44.9525 -39.25 46.3125 C-39.91 46.3125 -40.57 46.3125 -41.25 46.3125 C-42.21345444 48.18487371 -43.17053102 50.0605299 -44.125 51.9375 C-44.65867187 52.98164063 -45.19234375 54.02578125 -45.7421875 55.1015625 C-48.94072449 61.91295475 -49.4573051 66.38555103 -50.25 74.3125 C-18.9 74.3125 12.45 74.3125 44.75 74.3125 C44.88240577 65.278118 44.88240577 65.278118 42.75 57.3125 C42.50507812 56.55324219 42.26015625 55.79398438 42.0078125 55.01171875 C39.58981253 48.13218785 35.87075146 42.52192249 30.75 37.3125 C30.09 37.3125 29.43 37.3125 28.75 37.3125 C28.75 36.6525 28.75 35.9925 28.75 35.3125 C27.48308493 34.63841692 26.21129251 33.97349503 24.9375 33.3125 C24.22980469 32.94125 23.52210937 32.57 22.79296875 32.1875 C20.66079271 31.11564642 20.66079271 31.11564642 17.75 31.3125 C17.75 30.6525 17.75 29.9925 17.75 29.3125 C15.52149723 28.97475668 13.29216533 28.6424813 11.0625 28.3125 C9.82113281 28.126875 8.57976562 27.94125 7.30078125 27.75 C-3.30814647 26.44284939 -15.51640951 27.85127102 -25.25 32.3125 Z " fill="#2C2255" transform="translate(1205.25,140.6875)"/>
<path d="M0 0 C85.8 0 171.6 0 260 0 C260.99 4.62 261.98 9.24 263 14 C263.66 15.98 264.32 17.96 265 20 C265 28.91 265 37.82 265 47 C175.9 47 86.8 47 -5 47 C-5 14 -5 14 -2 11 C-1.34 7.37 -0.68 3.74 0 0 Z " fill="#F2F1F4" transform="translate(34,191)"/>
<path d="M0 0 C6.6199806 -0.15208965 13.23951124 -0.25718867 19.86083984 -0.32958984 C22.11328975 -0.35976962 24.36562207 -0.400719 26.61767578 -0.45263672 C29.85478701 -0.52539682 33.09034555 -0.55944469 36.328125 -0.5859375 C37.83925873 -0.63238907 37.83925873 -0.63238907 39.38092041 -0.67977905 C42.05319838 -0.68106647 44.40246898 -0.62918366 47 0 C49.54907227 2.88354492 49.54907227 2.88354492 51 6 C52.80551655 8.34380719 54.6543668 10.6464205 56.51171875 12.94921875 C58 15 58 15 59 18 C60.6940569 19.67883678 60.6940569 19.67883678 62.75 21.3125 C65.29840089 23.46398181 67.3190983 25.39273637 69.4375 28 C75.98251802 35.66246012 83.64037545 39.56338659 93 43 C93 43.66 93 44.32 93 45 C93.86753906 45.1340625 94.73507813 45.268125 95.62890625 45.40625 C99.7886711 46.13890847 103.82037417 47.20563219 107.90234375 48.28125 C115.26377366 49.98932453 122.35667598 50.15281131 129.875 50.125 C131.43154297 50.13080078 131.43154297 50.13080078 133.01953125 50.13671875 C144.96654476 50.22026833 144.96654476 50.22026833 156.3125 46.9375 C159.70329687 45.40317807 161.12761306 45 165 45 C165 44.34 165 43.68 165 43 C166.43429001 42.32645501 167.87257057 41.66140299 169.3125 41 C170.11300781 40.62875 170.91351563 40.2575 171.73828125 39.875 C174 39 174 39 177 39 C177 38.34 177 37.68 177 37 C179.1171875 35.2734375 179.1171875 35.2734375 181.875 33.375 C182.77992188 32.74335938 183.68484375 32.11171875 184.6171875 31.4609375 C187 30 187 30 189 30 C189 29.34 189 28.68 189 28 C190.40211362 26.87146952 191.80549538 25.74448239 193.21484375 24.625 C195.97064228 22.11643941 198.08166641 19.17342367 200.2890625 16.18359375 C202.04812321 13.93858248 203.97709249 12.00618927 206 10 C208.20535561 6.69196658 209.49819516 3.75451209 211 0 C226.84 0 242.68 0 259 0 C257.06060236 6.4646588 255.33339162 12.00308111 252.3125 17.875 C251.96727295 18.55554443 251.6220459 19.23608887 251.26635742 19.93725586 C247.97277842 26.29410929 244.14018517 32.1576402 240 38 C239.23623047 39.13501953 239.23623047 39.13501953 238.45703125 40.29296875 C237.36167248 41.90227884 236.19031253 43.45959555 235 45 C234.34 45 233.68 45 233 45 C232.74025391 45.58426758 232.48050781 46.16853516 232.21289062 46.77050781 C230.915344 49.15561164 229.50658878 50.75190637 227.59375 52.671875 C226.60181641 53.66767578 226.60181641 53.66767578 225.58984375 54.68359375 C224.90019531 55.36550781 224.21054687 56.04742187 223.5 56.75 C222.81035156 57.44738281 222.12070312 58.14476562 221.41015625 58.86328125 C220.74886719 59.52199219 220.08757812 60.18070312 219.40625 60.859375 C218.80103516 61.46233398 218.19582031 62.06529297 217.57226562 62.68652344 C216 64 216 64 214 64 C214 64.66 214 65.32 214 66 C211.70400115 67.81359484 209.41562173 69.48312126 207 71.125 C206.28030029 71.61564941 205.56060059 72.10629883 204.8190918 72.61181641 C181.80165788 87.96678537 156.69351722 95.17279876 129.1875 95.1875 C127.99318359 95.19974609 126.79886719 95.21199219 125.56835938 95.22460938 C117.83122385 95.23724487 110.57998236 94.52546722 103 93 C102.19844482 92.84861572 101.39688965 92.69723145 100.57104492 92.54125977 C90.8753616 90.67045718 81.94365211 88.27892376 73 84 C73 83.34 73 82.68 73 82 C72.195625 81.95875 71.39125 81.9175 70.5625 81.875 C66.305202 80.82934786 63.57689935 78.90844582 60.05078125 76.375 C57.95263715 74.83662546 57.95263715 74.83662546 55 74 C55 73.34 55 72.68 55 72 C54.27425781 71.7421875 53.54851562 71.484375 52.80078125 71.21875 C49.87952333 69.94757501 47.69127351 68.45983598 45.1875 66.5 C44.39730469 65.8915625 43.60710937 65.283125 42.79296875 64.65625 C42.20128906 64.1096875 41.60960937 63.563125 41 63 C41 62.34 41 61.68 41 61 C40.43796875 60.7628125 39.8759375 60.525625 39.296875 60.28125 C36.48105958 58.71052303 34.52044584 56.78528536 32.25 54.5 C31.45078125 53.7059375 30.6515625 52.911875 29.828125 52.09375 C28 50 28 50 28 48 C27.34 48 26.68 48 26 48 C24.43343464 46.13617367 22.98939231 44.2787991 21.5625 42.3125 C20.78003906 41.25675781 19.99757813 40.20101562 19.19140625 39.11328125 C14 31.73796791 14 31.73796791 14 29 C13.34 29 12.68 29 12 29 C1.70049319 9.03806929 1.70049319 9.03806929 0 0 Z " fill="#2B2155" transform="translate(35,270)"/>
<path d="M0 0 C2 2 2 2 2.22705078 4.88916016 C2.21657715 6.09362793 2.20610352 7.2980957 2.1953125 8.5390625 C2.18886719 9.84101563 2.18242188 11.14296875 2.17578125 12.484375 C2.15906929 13.86458595 2.14213939 15.24479429 2.125 16.625 C2.11497006 18.01301452 2.10584423 19.40103589 2.09765625 20.7890625 C2.07401863 24.19288026 2.04106867 27.59635506 2 31 C0.68 31 -0.64 31 -2 31 C-2 30.34 -2 29.68 -2 29 C-2.78375 28.9175 -3.5675 28.835 -4.375 28.75 C-8.38131157 27.92110795 -11.82307245 26.49068278 -15.5859375 24.921875 C-18.36418512 23.86092607 -21.04506395 23.3110459 -24 23 C-24 22.34 -24 21.68 -24 21 C-40.77002475 19.90161241 -57.23976549 19.63380912 -74 21 C-74 21.66 -74 22.32 -74 23 C-75.03125 23.391875 -76.0625 23.78375 -77.125 24.1875 C-81.56663095 26.0974914 -85.42049454 28.61726481 -88.14453125 32.7265625 C-89.31953238 35.84916823 -89.33946432 38.60780661 -89.375 41.9375 C-89.40335938 43.14277344 -89.43171875 44.34804687 -89.4609375 45.58984375 C-88.92372092 49.5643359 -87.64638937 51.07641965 -85 54 C-85 54.66 -85 55.32 -85 56 C-84.43152344 56.18175781 -83.86304688 56.36351562 -83.27734375 56.55078125 C-82.50519531 56.80214844 -81.73304688 57.05351562 -80.9375 57.3125 C-80.18339844 57.55613281 -79.42929688 57.79976563 -78.65234375 58.05078125 C-76.61916777 58.77841271 -74.62291083 59.60989963 -72.6484375 60.484375 C-69.00834393 61.99653379 -65.51571012 63.01125601 -61.6875 63.9375 C-61.00308838 64.10515869 -60.31867676 64.27281738 -59.61352539 64.44555664 C-55.16183114 65.52364239 -50.69271688 66.50007654 -46.21240234 67.45092773 C-32.97568479 70.28209087 -20.66169073 73.87341122 -9 81 C-8.33742188 81.39574219 -7.67484375 81.79148437 -6.9921875 82.19921875 C-5.3125 83.25 -5.3125 83.25 -3 85 C-3 85.66 -3 86.32 -3 87 C-1.515 87.495 -1.515 87.495 0 88 C3 91.44444444 3 91.44444444 3 94 C3.66 94 4.32 94 5 94 C5.81832722 95.89332534 6.62942268 97.78977733 7.4375 99.6875 C7.88996094 100.74324219 8.34242188 101.79898438 8.80859375 102.88671875 C13.01439561 113.87696164 12.60008911 129.22119341 8 140 C6.2272155 143.49356732 4.41162405 146.90317914 2 150 C1.34 150 0.68 150 0 150 C0 150.66 0 151.32 0 152 C-0.66 152 -1.32 152 -2 152 C-2.33 152.99 -2.66 153.98 -3 155 C-3.66 155 -4.32 155 -5 155 C-5.33 155.99 -5.66 156.98 -6 158 C-12.41726951 162.88511865 -20.58760614 168.76476308 -29 168 C-29 168.66 -29 169.32 -29 170 C-30.07121094 170.13277344 -31.14242188 170.26554688 -32.24609375 170.40234375 C-33.64325769 170.5805056 -35.04039159 170.75890319 -36.4375 170.9375 C-37.49807617 171.06801758 -37.49807617 171.06801758 -38.58007812 171.20117188 C-42.08817968 171.38216191 -42.08817968 171.38216191 -45 173 C-47.3756852 173.0883967 -49.72208674 173.11530305 -52.09765625 173.09765625 C-53.16094398 173.09553383 -53.16094398 173.09553383 -54.24571228 173.09336853 C-56.51801712 173.08775443 -58.79022475 173.07519963 -61.0625 173.0625 C-62.59960796 173.05748681 -64.13671745 173.05292359 -65.67382812 173.04882812 C-69.44925642 173.03778042 -73.22461171 173.02050641 -77 173 C-77 172.34 -77 171.68 -77 171 C-77.70125 171.01160156 -78.4025 171.02320313 -79.125 171.03515625 C-87.5412102 171.11520173 -94.89826895 170.47171456 -103 168 C-105.68455331 167.28653763 -108.37075961 166.57990621 -111.05859375 165.87890625 C-114.76616139 164.77106731 -118.37683375 163.35868734 -122 162 C-122 151.44 -122 140.88 -122 130 C-117.64510651 130.8709787 -115.28581121 131.7583854 -111.5 133.8125 C-106.29734708 136.47417469 -101.20221776 138.42252958 -95.57788086 139.99365234 C-93.25400803 140.64728618 -90.93737345 141.32744173 -88.63037109 142.03833008 C-79.96575666 144.58973018 -72.0215518 145.6626842 -62.96557617 145.57641602 C-60.93308583 145.56246971 -58.90515871 145.59690322 -56.87304688 145.63476562 C-46.84712486 145.69568637 -35.76443209 144.59896834 -28.23022461 137.32641602 C-27.49425049 136.55869873 -26.75827637 135.79098145 -26 135 C-25.34 135 -24.68 135 -24 135 C-20.81674563 126.59974541 -20.86512205 117.42498448 -24 109 C-24.66 109 -25.32 109 -26 109 C-26 108.34 -26 107.68 -26 107 C-26.70125 106.731875 -27.4025 106.46375 -28.125 106.1875 C-31 105 -31 105 -33.71484375 103.5546875 C-37.2542758 101.87966496 -40.64383781 100.89659372 -44.4375 99.9375 C-51.84751711 98.04509563 -51.84751711 98.04509563 -55.39453125 96.99609375 C-59.64701936 95.82124601 -63.92384519 94.97704913 -68.25 94.125 C-74.67576352 92.82299121 -80.7705591 91.28987105 -86.87109375 88.83203125 C-88.89906484 88.03944806 -90.87844883 87.47843637 -93 87 C-93 86.34 -93 85.68 -93 85 C-93.55042969 84.896875 -94.10085938 84.79375 -94.66796875 84.6875 C-104.50548543 81.78732758 -111.20167115 74.36539514 -116.27734375 65.859375 C-120.13684875 58.66229094 -120.18188263 51.57848368 -120.1875 43.5625 C-120.19974609 42.64662109 -120.21199219 41.73074219 -120.22460938 40.78710938 C-120.25184845 28.1390977 -115.58416681 17.24182476 -107 8 C-100.28395062 2 -100.28395062 2 -96 2 C-96 1.34 -96 0.68 -96 0 C-66.61751383 -12.72905651 -29.80910882 -11.23402982 0 0 Z " fill="#2C2255" transform="translate(1105,149)"/>
<path d="M0 0 C0.94230469 0.33902344 1.88460937 0.67804688 2.85546875 1.02734375 C5 2 5 2 6 4 C6.08543895 6.10528933 6.10714725 8.21331157 6.09765625 10.3203125 C6.09443359 11.57714844 6.09121094 12.83398438 6.08789062 14.12890625 C6.07951172 15.44761719 6.07113281 16.76632813 6.0625 18.125 C6.05748489 19.46484211 6.05292201 20.804686 6.04882812 22.14453125 C6.03701086 25.42973206 6.02053617 28.71484397 6 32 C1.40006649 31.31387294 -2.1267831 30.17952771 -6.3125 28.125 C-23.72993448 19.94467684 -45.14126781 16.83360485 -63.9375 22.5625 C-64.66839844 22.83191406 -65.39929688 23.10132813 -66.15234375 23.37890625 C-68 24 -68 24 -71 24 C-71 24.66 -71 25.32 -71 26 C-71.969375 26.474375 -72.93875 26.94875 -73.9375 27.4375 C-84.23242452 33.42727426 -91.65732526 43.5772671 -94.83984375 55.01953125 C-95.1748567 56.72883089 -95.47162143 58.44657307 -95.7109375 60.171875 C-96 62 -96 62 -97 63 C-99.31954418 77.23226488 -99.73829968 95.31157871 -95 109 C-94.70996094 109.91458984 -94.70996094 109.91458984 -94.4140625 110.84765625 C-92.69768836 115.92610444 -90.16039715 120.27568909 -87.3046875 124.80078125 C-86 127 -86 127 -85 130 C-84.01 130.33 -83.02 130.66 -82 131 C-82 131.66 -82 132.32 -82 133 C-81.34 133 -80.68 133 -80 133 C-80 133.66 -80 134.32 -80 135 C-77.06279492 136.52299523 -74.0831351 137.80100302 -71 139 C-71 139.66 -71 140.32 -71 141 C-69.5459375 141.1546875 -69.5459375 141.1546875 -68.0625 141.3125 C-65.1588619 141.71027349 -62.68474067 142.45352521 -59.95703125 143.51171875 C-54.50572513 145.35777859 -49.34473612 145.53658779 -43.625 145.5 C-42.57715332 145.49427979 -41.52930664 145.48855957 -40.44970703 145.48266602 C-25.99027234 145.15658765 -13.35612843 141.38262721 -0.78515625 134.35546875 C2 133 2 133 6 133 C6.07409401 136.95092059 6.12857406 140.90157294 6.16479492 144.85302734 C6.18732251 146.85919374 6.2254357 148.86516526 6.26367188 150.87109375 C6.27817383 152.75634766 6.27817383 152.75634766 6.29296875 154.6796875 C6.31653442 156.42354736 6.31653442 156.42354736 6.34057617 158.20263672 C6.22818604 159.1257666 6.1157959 160.04889648 6 161 C3 163 3 163 0 163 C0 163.66 0 164.32 0 165 C-10.01163003 169.12243589 -20.12631918 171.66272998 -31 171 C-31 171.66 -31 172.32 -31 173 C-40.9 173 -50.8 173 -61 173 C-61 172.34 -61 171.68 -61 171 C-61.58007812 171.01160156 -62.16015625 171.02320313 -62.7578125 171.03515625 C-67.2998246 171.08762174 -71.52713569 170.91751063 -76 170 C-76 169.34 -76 168.68 -76 168 C-76.94875 167.938125 -77.8975 167.87625 -78.875 167.8125 C-87.06517922 166.56759276 -93.67830146 161.71399833 -100.125 156.8125 C-100.70588379 156.37236572 -101.28676758 155.93223145 -101.88525391 155.47875977 C-103.2988666 154.37079881 -104.6553913 153.19075849 -106 152 C-106 151.34 -106 150.68 -106 150 C-106.99 149.67 -107.98 149.34 -109 149 C-109 148.34 -109 147.68 -109 147 C-109.66 147 -110.32 147 -111 147 C-112.5078125 145.1015625 -112.5078125 145.1015625 -114.125 142.625 C-114.66382813 141.81289063 -115.20265625 141.00078125 -115.7578125 140.1640625 C-117 138 -117 138 -117 136 C-117.66 136 -118.32 136 -119 136 C-124.68293144 124.08478708 -129.14852082 113.45215294 -130.60546875 100.28515625 C-130.89584534 97.20537442 -130.89584534 97.20537442 -131.51416016 95.09130859 C-134.1526742 83.73376525 -132.44935676 69.22748628 -130 58 C-129.67322266 56.44925781 -129.67322266 56.44925781 -129.33984375 54.8671875 C-127.88746005 48.53384217 -125.94370462 42.78829461 -123 37 C-122.54496094 36.1028125 -122.08992187 35.205625 -121.62109375 34.28125 C-117.46213301 26.37596692 -113.24394032 19.38651973 -106 14 C-105.175 13.175 -104.35 12.35 -103.5 11.5 C-97.70253084 5.70253084 -91.36006035 2.44770504 -84 -1 C-83.2059375 -1.38542969 -82.411875 -1.77085937 -81.59375 -2.16796875 C-56.51364868 -13.37671266 -24.94536672 -9.4127598 0 0 Z " fill="#2C2255" transform="translate(670,149)"/>
<path d="M0 0 C-0.33 1.32 -0.66 2.64 -1 4 C-2.05058594 4.10957031 -3.10117188 4.21914062 -4.18359375 4.33203125 C-11.80643089 5.17275193 -18.83944695 6.14079493 -26 9 C-26.91136719 9.31453125 -27.82273437 9.6290625 -28.76171875 9.953125 C-46.83289056 16.39253879 -64.58281907 26.13055454 -78 40 C-78.90878906 40.88558594 -79.81757812 41.77117187 -80.75390625 42.68359375 C-82.14416016 44.04677734 -82.14416016 44.04677734 -83.5625 45.4375 C-84.95662109 46.79681641 -84.95662109 46.79681641 -86.37890625 48.18359375 C-88.31731055 50.26643951 -89.72249679 51.99484454 -91.21484375 54.34765625 C-91.80394531 55.22292969 -92.39304688 56.09820312 -93 57 C-93.66 57 -94.32 57 -95 57 C-95.39638672 58.08474609 -95.39638672 58.08474609 -95.80078125 59.19140625 C-97.01697718 62.03976088 -98.45970685 64.37150972 -100.1875 66.9375 C-109.53273103 81.43135104 -115.75405805 97.07607144 -119 114 C-119.25487183 115.28221436 -119.25487183 115.28221436 -119.51489258 116.59033203 C-120.94427562 124.30759848 -121.34885753 131.78534058 -121.3125 139.625 C-121.30903564 140.84759521 -121.30557129 142.07019043 -121.30200195 143.32983398 C-121.18480823 153.15662442 -120.19321963 162.43233086 -118 172 C-117.76023437 173.05058594 -117.52046875 174.10117187 -117.2734375 175.18359375 C-113.33137372 190.80023104 -105.74549936 205.64769897 -96.46875 218.7421875 C-95 221 -95 221 -95 223 C-94.34 223 -93.68 223 -93 223 C-91.625 224.6171875 -91.625 224.6171875 -90 226.875 C-82.90408854 236.22870148 -74.24996764 243.83396402 -65 251 C-64.2575 251.59425781 -63.515 252.18851563 -62.75 252.80078125 C-45.83415183 265.57577075 -22.06498073 274.64848575 -1 276 C-0.67 277.32 -0.34 278.64 0 280 C-3.56469849 281.64148584 -6.05434619 282.21437615 -9.95703125 281.86328125 C-11.36746704 281.74158569 -11.36746704 281.74158569 -12.80639648 281.61743164 C-13.79841064 281.5168042 -14.7904248 281.41617676 -15.8125 281.3125 C-16.83480713 281.21509521 -17.85711426 281.11769043 -18.91040039 281.01733398 C-40.62380332 278.82572944 -40.62380332 278.82572944 -49.91015625 274.86328125 C-51.59903955 274.16563039 -53.32506003 273.55831332 -55.05859375 272.98046875 C-74.67785456 266.44071515 -91.10134092 255.25848232 -106 241 C-106.86625 240.175 -107.7325 239.35 -108.625 238.5 C-119 227.57894737 -119 227.57894737 -119 225 C-119.66 225 -120.32 225 -121 225 C-122.43341315 223.0356931 -123.71117083 221.05893453 -125 219 C-125.52980469 218.21109375 -126.05960938 217.4221875 -126.60546875 216.609375 C-135.50526033 203.1712791 -141.88316433 187.98408403 -145.421875 172.265625 C-145.78271515 170.04717806 -145.78271515 170.04717806 -147 169 C-147.10944557 167.23230659 -147.1490885 165.46024633 -147.16113281 163.68920898 C-147.17074036 162.55390244 -147.1803479 161.41859589 -147.19024658 160.24888611 C-147.19449646 159.01046463 -147.19874634 157.77204315 -147.203125 156.49609375 C-147.20882507 155.22911148 -147.21452515 153.96212921 -147.22039795 152.65675354 C-147.22986933 149.96571256 -147.23675419 147.27478364 -147.24023438 144.58374023 C-147.24568979 141.15299129 -147.26964694 137.72264517 -147.29820633 134.29202175 C-147.32145292 131.00590999 -147.32329209 127.71977619 -147.328125 124.43359375 C-147.3466452 122.59721596 -147.3466452 122.59721596 -147.36553955 120.72373962 C-147.34821741 114.04346721 -146.77580731 109.08552546 -144 103 C-143.3942425 100.79771216 -142.81018556 98.58931841 -142.25 96.375 C-140.10200514 88.70944581 -136.77120125 81.98370603 -133 75 C-132.48050781 74.00742188 -131.96101562 73.01484375 -131.42578125 71.9921875 C-124.99519751 59.87365962 -124.99519751 59.87365962 -121 55 C-120.34 55 -119.68 55 -119 55 C-118.73832031 54.42121094 -118.47664063 53.84242188 -118.20703125 53.24609375 C-116.92707261 50.86429369 -115.48643946 49.07683354 -113.6875 47.0625 C-112.82705078 46.08990234 -112.82705078 46.08990234 -111.94921875 45.09765625 C-91.90888241 23.53120211 -66.96870463 8.22557255 -38 2 C-37.28287842 1.84096191 -36.56575684 1.68192383 -35.8269043 1.51806641 C-29.30939047 0.13058811 -22.8214744 -0.66299901 -16.1875 -1.25 C-15.17751953 -1.353125 -14.16753906 -1.45625 -13.12695312 -1.5625 C-12.15048828 -1.65015625 -11.17402344 -1.7378125 -10.16796875 -1.828125 C-9.29422607 -1.9096582 -8.4204834 -1.99119141 -7.52026367 -2.07519531 C-4.62996493 -1.98895953 -2.60652156 -1.21016028 0 0 Z " fill="#F7941D" transform="translate(147,90)"/>
<path d="M0 0 C1.25159912 0.00523682 2.50319824 0.01047363 3.79272461 0.01586914 C4.78942421 0.01799156 4.78942421 0.01799156 5.80625916 0.02015686 C7.93590735 0.02577021 10.06545175 0.03832485 12.19506836 0.05102539 C13.63582205 0.05603868 15.07657739 0.06060188 16.51733398 0.06469727 C20.05577938 0.07574394 23.59416375 0.09301747 27.13256836 0.11352539 C28.85400658 3.55640183 28.26491772 7.52483562 28.25282288 11.31350708 C28.2536773 12.27893429 28.25453173 13.24436149 28.25541204 14.23904407 C28.25706736 17.49426078 28.25154461 20.74942666 28.24609375 24.00463867 C28.24581186 26.33002725 28.24596964 28.65541592 28.24653625 30.98080444 C28.24682417 37.31107038 28.24092836 43.64131752 28.2339623 49.97157907 C28.2283589 55.91163985 28.22734022 61.85169987 28.22631042 67.79176293 C28.22412033 79.55933966 28.21746138 91.32690946 28.20800781 103.09448242 C28.19883261 114.52742478 28.1917523 125.96036525 28.1875 137.39331055 C28.18723728 138.09771606 28.18697455 138.80212157 28.18670387 139.5278727 C28.18539886 143.06157223 28.18413514 146.59527178 28.18289196 150.12897134 C28.17252067 179.4571606 28.1546288 208.78534261 28.13256836 238.11352539 C17.57256836 238.11352539 7.01256836 238.11352539 -3.86743164 238.11352539 C-3.8900165 207.93814969 -3.90792961 177.76277492 -3.91849697 147.58739266 C-3.91974775 144.02863936 -3.92104206 140.46988608 -3.92236328 136.91113281 C-3.92262559 136.20261942 -3.9228879 135.49410603 -3.92315816 134.76412254 C-3.92751494 123.27701121 -3.93540253 111.78990486 -3.94458444 100.30279649 C-3.95392077 88.52467272 -3.95948721 76.74655158 -3.96152014 64.96842426 C-3.96282769 58.34917425 -3.96591637 51.72993556 -3.9731617 45.11068916 C-3.97991776 38.88838026 -3.98204945 32.6660874 -3.98053932 26.44377518 C-3.98081584 24.1527504 -3.9828234 21.86172512 -3.98663712 19.57070351 C-3.99156791 16.45752102 -3.99043221 13.34440016 -3.98768616 10.23121643 C-3.990599 9.31197453 -3.99351184 8.39273262 -3.99651295 7.4456349 C-3.97897822 0.15753298 -3.97897822 0.15753298 0 0 Z " fill="#2C2255" transform="translate(700.867431640625,78.886474609375)"/>
<path d="M0 0 C9.9 0 19.8 0 30 0 C30 56.43 30 112.86 30 171 C20.1 171 10.2 171 0 171 C0 114.57 0 58.14 0 0 Z " fill="#2C2255" transform="translate(761,146)"/>
<path d="M0 0 C85.8 0 171.6 0 260 0 C260.99 5.28 261.98 10.56 263 16 C175.22 16 87.44 16 -3 16 C-2.67 14.35 -2.34 12.7 -2 11 C-1.34 7.37 -0.68 3.74 0 0 Z " fill="#F2F2F5" transform="translate(34,191)"/>
<path d="M0 0 C89.1 0 178.2 0 270 0 C270 11 270 11 268 16 C180.22 15.67 92.44 15.34 2 15 C0 6 0 6 0 0 Z " fill="#332762" transform="translate(29,238)"/>
<path d="M0 0 C87.78 0 175.56 0 266 0 C268 4 268 4 268 15 C178.9 15 89.8 15 -2 15 C-1.4980785 9.980785 -0.98925855 4.94629275 0 0 Z " fill="#31275A" transform="translate(31,207)"/>
<path d="M0 0 C33.74241073 -0.0228654 67.48481954 -0.04049773 101.2272363 -0.05106533 C105.20658528 -0.05231611 109.18593424 -0.05361042 113.1652832 -0.05493164 C113.95753381 -0.05519395 114.74978441 -0.05545626 115.56604261 -0.05572652 C128.41112421 -0.06008341 141.25620137 -0.06797106 154.10128032 -0.0771528 C167.2715794 -0.08648882 180.44187614 -0.0920555 193.61217839 -0.09408849 C201.74558286 -0.09546383 209.87897476 -0.09981499 218.01237536 -0.10791647 C224.2384226 -0.11380394 230.46446015 -0.11445909 236.6905098 -0.11310768 C239.2524441 -0.11338422 241.81437886 -0.11539207 244.37631035 -0.11920547 C247.8573318 -0.12413549 251.33829812 -0.12300085 254.81932068 -0.12025452 C255.84750914 -0.12316736 256.87569759 -0.1260802 257.93504328 -0.12908131 C258.86013415 -0.12709026 259.78522503 -0.12509921 260.73834896 -0.12304783 C261.54297634 -0.12342755 262.34760372 -0.12380727 263.17661375 -0.1241985 C265 0 265 0 266 1 C265.50411811 5.95881891 264.38835105 10.14077132 263 15 C177.2 15 91.4 15 3 15 C2 10 1 5 0 0 Z " fill="#F8F8F9" transform="translate(31,253)"/>
<path d="M0 0 C9.9 0 19.8 0 30 0 C30 12.54 30 25.08 30 38 C20.1 38 10.2 38 0 38 C0 25.46 0 12.92 0 0 Z " fill="#F79622" transform="translate(761,79)"/>
<path d="M0 0 C73.26 0 146.52 0 222 0 C222 0.66 222 1.32 222 2 C236.19 2 250.38 2 265 2 C265 2.33 265 2.66 265 3 C177.55 3 90.1 3 0 3 C0 2.01 0 1.02 0 0 Z " fill="#453B71" transform="translate(31,250)"/>
<path d="M0 0 C89.1 0 178.2 0 270 0 C270 0.66 270 1.32 270 2 C269.43367957 2.00097681 268.86735914 2.00195362 268.28387749 2.00296003 C234.7482942 2.06118249 201.21278401 2.13494151 167.67728222 2.22898628 C163.65415851 2.24025498 159.63103445 2.25139334 155.60791016 2.26245117 C154.40646995 2.2657567 154.40646995 2.2657567 153.18075822 2.269129 C140.19733436 2.30453924 127.21391056 2.3293823 114.23045625 2.35034702 C100.91660171 2.37207945 87.60281006 2.40510537 74.28900898 2.44870156 C66.06807838 2.47526253 57.84722619 2.49292509 49.62625478 2.49934604 C43.99528552 2.50458639 38.36441508 2.52075748 32.73349871 2.54566566 C29.48061359 2.55972747 26.22794187 2.56721875 22.97502136 2.56500816 C19.4547458 2.56337044 15.93502527 2.57992586 12.41482544 2.60127258 C11.37787698 2.59642501 10.34092852 2.59157743 9.27255738 2.58658296 C7.86625921 2.60076777 7.86625921 2.60076777 6.43155098 2.61523914 C5.21150956 2.61808705 5.21150956 2.61808705 3.96682084 2.62099248 C2.99324452 2.8086012 2.99324452 2.8086012 2 3 C1.34 3.99 0.68 4.98 0 6 C0 4.02 0 2.04 0 0 Z " fill="#382E64" transform="translate(29,238)"/>
<path d="M0 0 C14.52 0 29.04 0 44 0 C44 10.125 44 10.125 42 14 C41.505 13.01 41.505 13.01 41 12 C26.81 12 12.62 12 -2 12 C-1 4 -1 4 0 0 Z " fill="#2B2154" transform="translate(255,240)"/>
</svg>
