<?xml version="1.0" encoding="UTF-8"?>
<svg version="1.1" xmlns="http://www.w3.org/2000/svg" width="800" height="600">
<path d="M0 0 C10.26914902 -0.28125896 20.27515411 0.59318494 30.45751953 1.73730469 C32.17550655 1.92519443 33.8935461 2.11260437 35.6116333 2.29957581 C41.20341162 2.91148954 46.7932873 3.53974645 52.3828125 4.171875 C53.33782575 4.27981542 54.292839 4.38775583 55.27679205 4.49896717 C64.29916195 5.52004511 73.3206606 6.54858178 82.34042549 7.59243393 C93.82767833 8.92122389 105.3177212 10.21474424 116.81417763 11.46147037 C124.928495 12.34443245 133.03758518 13.26798451 141.14394081 14.221246 C145.97346133 14.78804341 150.80343687 15.33704916 155.63983536 15.84212494 C160.18845186 16.31796899 164.72848737 16.84416972 169.2669754 17.40827751 C170.92442609 17.60558113 172.58411236 17.78512398 174.24562454 17.94465065 C183.087197 18.80455095 189.25327419 19.99244469 195.2975769 26.86578369 C196.90402029 28.88005085 198.47401472 30.9241143 200 33 C201.47283998 34.81764481 202.95099524 36.63101339 204.4375 38.4375 C205.15808594 39.33339844 205.87867188 40.22929688 206.62109375 41.15234375 C209.7972857 44.95438633 213.17270822 48.54903752 216.55834961 52.16381836 C220.4599667 56.35329526 224.07324797 60.72172936 227.65625 65.1875 C230.81096044 68.97315253 234.16742044 72.54983573 237.54101562 76.13989258 C241.63830417 80.52843575 245.38889378 85.10343646 249.0625 89.85546875 C250.99322814 91.99250454 252.43110462 92.81602496 255 94 C261.69468904 86.3326668 268.34985913 78.65237169 274.7578125 70.7421875 C277.30253683 67.62999852 279.89618225 64.56273503 282.5 61.5 C285.87288602 57.53100848 289.21176774 53.5398282 292.5 49.5 C295.7882374 45.46016548 299.12731461 41.46916723 302.5 37.5 C307.40549044 31.72453689 312.21807778 25.8783065 317 20 C318.68622162 17.93645121 320.37442421 15.8745333 322.0625 13.8125 C323.19365234 12.42998047 323.19365234 12.42998047 324.34765625 11.01953125 C324.89292969 10.35308594 325.43820312 9.68664062 326 9 C330.22068452 9.54163748 332.99701541 12.09387477 336.1875 14.6875 C336.79335938 15.17154297 337.39921875 15.65558594 338.0234375 16.15429688 C343.62014792 20.6441528 349.14610849 25.2218693 354.67163086 29.79882812 C359.14560589 33.49835418 363.66703964 37.12411958 368.25 40.6875 C373.31280194 44.62523484 378.22992493 48.70085162 383.10205078 52.87133789 C387.610893 56.7130904 392.24328981 60.37860273 396.91455078 64.02001953 C401.34056429 67.47203951 405.69957129 70.99726127 410.03515625 74.5625 C418.68265979 81.67191002 427.35563305 88.74544048 436.1875 95.625 C441.27355768 99.58870134 446.21633658 103.68989892 451.11499023 107.88208008 C455.47674653 111.59808865 459.95679796 115.1403162 464.47949219 118.6574707 C470.05722951 123.00998249 475.50994028 127.50789657 480.96166992 132.01660156 C485.38005993 135.66966061 489.82507852 139.28343917 494.3125 142.8515625 C498.0776917 145.86152679 501.82034155 148.8989742 505.5625 151.9375 C506.27865479 152.51830322 506.99480957 153.09910645 507.73266602 153.69750977 C508.39967529 154.23947998 509.06668457 154.7814502 509.75390625 155.33984375 C510.35533447 155.82831787 510.9567627 156.31679199 511.57641602 156.82006836 C513 158 513 158 514 159 C514.11844355 161.49237041 514.16859422 163.95533826 514.17456055 166.44902039 C514.17925417 167.25082234 514.18394779 168.05262429 514.18878365 168.87872326 C514.2003123 171.62972517 514.20108645 174.38056717 514.19921875 177.1315918 C514.19935754 178.59648798 514.19935754 178.59648798 514.19949913 180.09097803 C514.17054349 209.23961013 513.06146569 238.3684984 512.06456751 267.49637749 C511.77872066 275.85717527 511.50167967 284.21825915 511.22496808 292.57936343 C510.7316432 307.47896927 510.23177414 322.37834757 509.72753906 337.27758789 C509.23896026 351.7146449 508.75361948 366.15180503 508.27246094 380.58911133 C508.24259098 381.48533543 508.21272103 382.38155953 508.18194592 383.30494193 C508.03205375 387.80291933 507.88222342 392.30089878 507.73242378 396.79887927 C506.49786191 433.86624327 505.25257468 470.93324052 504 508 C500.13503758 509.60382841 496.26961066 511.20653117 492.40379715 512.80830669 C491.09590215 513.35039441 489.7881224 513.89276027 488.48047256 514.43543911 C479.19466824 518.28877435 469.88479091 522.07535499 460.546875 525.80078125 C459.79214732 526.10215457 459.03741963 526.40352788 458.25982141 526.71403372 C456.50499173 527.41403089 454.74959035 528.11259439 452.99414062 528.81103516 C444.32634928 532.26359097 435.670667 535.74610146 427.015625 539.23046875 C425.42417092 539.87102246 423.8327148 540.51157111 422.24125671 541.15211487 C418.10230226 542.81811686 413.96349114 544.48447469 409.82470322 546.15089035 C405.42270635 547.92319265 401.02055139 549.69510219 396.6184082 551.46704102 C390.161311 554.06616725 383.70425506 556.66539593 377.24725437 559.26476192 C359.97485834 566.21801753 342.70178365 573.16958665 325.42862129 580.1209383 C319.97418295 582.31600586 314.51977547 584.51115006 309.06539822 586.7063694 C305.68438979 588.06711314 302.30336423 589.42781431 298.92233467 590.78850555 C297.35446022 591.41950479 295.78659277 592.05052141 294.21873283 592.6815567 C292.07707523 593.54353122 289.93539143 594.4054406 287.79370117 595.26733398 C286.59541183 595.74959946 285.3971225 596.23186493 284.16252136 596.72874451 C282.59707329 597.35801598 282.59707329 597.35801598 281 598 C280.10295853 598.3770961 279.20591705 598.7541922 278.2816925 599.14271545 C274.92091886 600.40543569 272.57477753 600.43410709 269 600 C266.0440762 598.58094646 263.46528584 596.72923909 260.8125 594.8125 C259.21714165 593.70429423 257.620749 592.59757625 256.0234375 591.4921875 C255.1994043 590.9156543 254.37537109 590.33912109 253.52636719 589.74511719 C249.38805568 586.88653092 245.16319483 584.16450682 240.9375 581.4375 C239.24863265 580.34254857 237.55983003 579.24749732 235.87109375 578.15234375 C234.24751459 577.10137901 232.62382119 576.05059075 231 575 C229.90389404 574.29061279 229.90389404 574.29061279 228.78564453 573.56689453 C226.00185415 571.76539269 223.21789586 569.96415169 220.43334961 568.16381836 C214.09567417 564.06532162 207.76839966 559.9508981 201.44140625 555.8359375 C196.1320918 552.38365599 190.81830753 548.93840909 185.5 545.5 C179.16278654 541.4018044 172.82946032 537.29766104 166.5 533.1875 C165.68724609 532.66027344 164.87449219 532.13304687 164.03710938 531.58984375 C163.25142578 531.079375 162.46574219 530.56890625 161.65625 530.04296875 C160.8828125 529.54716309 160.109375 529.05135742 159.3125 528.54052734 C157.73700884 527.49097612 156.19536264 526.38921636 154.6875 525.24462891 C153.55828125 524.40617432 153.55828125 524.40617432 152.40625 523.55078125 C151.42108398 522.78181519 151.42108398 522.78181519 150.41601562 521.99731445 C143.59008662 519.17961842 135.43313577 523.43637461 129 525.8828125 C127.92104462 526.2846727 126.84208923 526.6865329 125.73043823 527.10057068 C123.38532477 527.97473093 121.04161355 528.85266019 118.69915771 529.73391724 C112.95693984 531.89330078 107.20580112 534.02857045 101.45461655 536.16393471 C100.10797788 536.66405353 98.76145445 537.16448276 97.41504288 537.66521263 C82.60986873 543.1710001 67.75075177 548.52246983 52.87897491 553.84524918 C46.88227302 555.99155318 40.88628108 558.13983898 34.890625 560.2890625 C34.23557102 560.52382357 33.58051704 560.75858463 32.90561295 561.00045967 C22.85809906 564.60239806 12.82365185 568.23919359 2.796875 571.8984375 C1.49280831 572.37412086 0.18874134 572.84980344 -1.11532593 573.32548523 C-7.2533109 575.5650822 -13.38955622 577.80935611 -19.52392578 580.05883789 C-21.69039783 580.85051036 -23.85689994 581.64210059 -26.0234375 582.43359375 C-27.50750092 582.98018143 -27.50750092 582.98018143 -29.02154541 583.53781128 C-30.36705475 584.0284758 -30.36705475 584.0284758 -31.73974609 584.52905273 C-32.51933685 584.81497787 -33.29892761 585.10090302 -34.10214233 585.39549255 C-36 586 -36 586 -38 586 C-37.30496589 579.59193203 -35.59498408 573.59034715 -33.81640625 567.40625 C-33.48934189 566.25533371 -33.16227753 565.10441742 -32.82530212 563.91862488 C-31.92936349 560.76939853 -31.02935463 557.62137075 -30.12747192 554.47384262 C-29.17419945 551.14339423 -28.22608108 547.81147887 -27.27734375 544.47973633 C-25.67635611 538.86013845 -24.07203072 533.24150273 -22.46533203 527.62353516 C-20.23256865 519.8164574 -18.00574511 512.00769545 -15.78019524 504.19855881 C-14.02133771 498.02786147 -12.2607925 491.85764543 -10.5 485.6875 C-10.13794464 484.41874023 -9.77588928 483.14998047 -9.40286255 481.84277344 C-8.34233461 478.12801369 -7.28083672 474.41353311 -6.21875 470.69921875 C-5.87935898 469.5117807 -5.53996796 468.32434265 -5.19029236 467.10092163 C-3.30132611 460.50410416 -1.39437663 453.91284764 0.53125 447.32666016 C0.74096184 446.60841599 0.95067368 445.89017183 1.16674042 445.1501627 C2.1853652 441.66151736 3.20649557 438.17364892 4.23254395 434.68717957 C4.59473022 433.44825455 4.9569165 432.20932953 5.33007812 430.93286133 C5.81450378 429.28390617 5.81450378 429.28390617 6.30871582 427.60163879 C7.0856001 425.12649742 7.0856001 425.12649742 7 423 C5.651491 421.70166583 5.651491 421.70166583 3.84375 420.41796875 C3.15925781 419.90492188 2.47476563 419.391875 1.76953125 418.86328125 C1.02058594 418.31027344 0.27164063 417.75726563 -0.5 417.1875 C-6.43148958 412.73639894 -12.27369797 408.21226938 -18 403.5 C-23.41801955 399.05302126 -28.91341298 394.73320768 -34.5 390.5 C-40.85498105 385.68436564 -47.07557701 380.73104987 -53.24414062 375.67944336 C-61.97552211 368.54221366 -70.95747813 361.73756531 -80 355 C-79.41121799 351.35794543 -78.41946818 348.51109174 -76.69921875 345.25390625 C-76.22315186 344.34616455 -75.74708496 343.43842285 -75.2565918 342.50317383 C-74.7387915 341.53275146 -74.22099121 340.5623291 -73.6875 339.5625 C-73.14843018 338.54115967 -72.60936035 337.51981934 -72.05395508 336.4675293 C-68.00459606 328.8204411 -63.87738605 321.21614263 -59.71582031 313.62963867 C-55.57149533 306.07206475 -51.49816372 298.47768567 -47.4375 290.875 C-41.37891585 279.53451877 -35.23197541 268.24605958 -29 257 C-29.80018555 256.89727783 -30.60037109 256.79455566 -31.42480469 256.6887207 C-35.84549583 255.83712485 -39.95437713 254.44947146 -44.203125 252.98046875 C-45.08095642 252.68062576 -45.95878784 252.38078278 -46.86322021 252.07185364 C-48.7163836 251.43775276 -50.56876666 250.80136732 -52.42041016 250.1628418 C-55.22501923 249.19611072 -58.0321802 248.23711574 -60.83984375 247.27929688 C-62.64859505 246.65931362 -64.45719376 246.03888496 -66.265625 245.41796875 C-67.09201477 245.13551804 -67.91840454 244.85306732 -68.76983643 244.5620575 C-74.58782001 242.55115426 -80.30284658 240.33050378 -86 238 C-85.42263548 232.950082 -84.32162228 228.59717362 -82.578125 223.7890625 C-82.32639526 223.08962524 -82.07466553 222.39018799 -81.81530762 221.66955566 C-80.96698513 219.31885468 -80.10862894 216.97195427 -79.25 214.625 C-78.63142279 212.91925784 -78.01327218 211.21336093 -77.39550781 209.50732422 C-75.27643218 203.66686272 -73.13994506 197.83284264 -71 192 C-70.60458008 190.92218262 -70.20916016 189.84436523 -69.80175781 188.73388672 C-64.53082629 174.37362879 -59.23717774 160.02177772 -53.93804932 145.67190552 C-49.97602309 134.9406747 -46.02967314 124.20373068 -42.08828735 113.46490479 C-39.13130981 105.40898385 -36.17157556 97.35407474 -33.21209717 89.29907227 C-32.3753357 87.02158444 -31.53862846 84.74407669 -30.70196533 82.46655273 C-9.0992319 23.66417289 -9.0992319 23.66417289 0 0 Z " fill="#000001" transform="translate(186,0)"/>
<path d="M0 0 C4.22068452 0.54163748 6.99701541 3.09387477 10.1875 5.6875 C11.09628906 6.41356445 11.09628906 6.41356445 12.0234375 7.15429688 C17.62014792 11.6441528 23.14610849 16.2218693 28.67163086 20.79882812 C33.14560589 24.49835418 37.66703964 28.12411958 42.25 31.6875 C47.31280194 35.62523484 52.22992493 39.70085162 57.10205078 43.87133789 C61.610893 47.7130904 66.24328981 51.37860273 70.91455078 55.02001953 C75.34056429 58.47203951 79.69957129 61.99726127 84.03515625 65.5625 C92.68265979 72.67191002 101.35563305 79.74544048 110.1875 86.625 C115.27355768 90.58870134 120.21633658 94.68989892 125.11499023 98.88208008 C129.47674653 102.59808865 133.95679796 106.1403162 138.47949219 109.6574707 C144.05722951 114.00998249 149.50994028 118.50789657 154.96166992 123.01660156 C159.38005993 126.66966061 163.82507852 130.28343917 168.3125 133.8515625 C172.0776917 136.86152679 175.82034155 139.8989742 179.5625 142.9375 C180.27865479 143.51830322 180.99480957 144.09910645 181.73266602 144.69750977 C182.39967529 145.23947998 183.06668457 145.7814502 183.75390625 146.33984375 C184.35533447 146.82831787 184.9567627 147.31679199 185.57641602 147.82006836 C187 149 187 149 188 150 C188.11844355 152.49237041 188.16859422 154.95533826 188.17456055 157.44902039 C188.17925417 158.25082234 188.18394779 159.05262429 188.18878365 159.87872326 C188.2003123 162.62972517 188.20108645 165.38056717 188.19921875 168.1315918 C188.19931128 169.10818925 188.1994038 170.08478671 188.19949913 171.09097803 C188.17054349 200.23961013 187.06146569 229.3684984 186.06456751 258.49637749 C185.77872066 266.85717527 185.50167967 275.21825915 185.22496808 283.57936343 C184.7316432 298.47896927 184.23177414 313.37834757 183.72753906 328.27758789 C183.23896026 342.7146449 182.75361948 357.15180503 182.27246094 371.58911133 C182.24259098 372.48533543 182.21272103 373.38155953 182.18194592 374.30494193 C182.03205375 378.80291933 181.88222342 383.30089878 181.73242378 387.79887927 C180.49786191 424.86624327 179.25257468 461.93324052 178 499 C174.13503758 500.60382841 170.26961066 502.20653117 166.40379715 503.80830669 C165.09590215 504.35039441 163.7881224 504.89276027 162.48047256 505.43543911 C153.19466824 509.28877435 143.88479091 513.07535499 134.546875 516.80078125 C133.79214732 517.10215457 133.03741963 517.40352788 132.25982141 517.71403372 C130.50499173 518.41403089 128.74959035 519.11259439 126.99414062 519.81103516 C118.32634928 523.26359097 109.670667 526.74610146 101.015625 530.23046875 C99.42417092 530.87102246 97.8327148 531.51157111 96.24125671 532.15211487 C92.10230226 533.81811686 87.96349114 535.48447469 83.82470322 537.15089035 C79.42270635 538.92319265 75.02055139 540.69510219 70.6184082 542.46704102 C64.161311 545.06616725 57.70425506 547.66539593 51.24725437 550.26476192 C33.97485834 557.21801753 16.70178365 564.16958665 -0.57137871 571.1209383 C-6.02581705 573.31600586 -11.48022453 575.51115006 -16.93460178 577.7063694 C-20.31561021 579.06711314 -23.69663577 580.42781431 -27.07766533 581.78850555 C-28.64553978 582.41950479 -30.21340723 583.05052141 -31.78126717 583.6815567 C-33.92292477 584.54353122 -36.06460857 585.4054406 -38.20629883 586.26733398 C-39.40458817 586.74959946 -40.6028775 587.23186493 -41.83747864 587.72874451 C-42.88111069 588.14825882 -43.92474274 588.56777313 -45 589 C-45.89704147 589.3770961 -46.79408295 589.7541922 -47.7183075 590.14271545 C-51.07908114 591.40543569 -53.42522247 591.43410709 -57 591 C-59.9559238 589.58094646 -62.53471416 587.72923909 -65.1875 585.8125 C-66.78285835 584.70429423 -68.379251 583.59757625 -69.9765625 582.4921875 C-70.8005957 581.9156543 -71.62462891 581.33912109 -72.47363281 580.74511719 C-76.61194432 577.88653092 -80.83680517 575.16450682 -85.0625 572.4375 C-86.75136735 571.34254857 -88.44016997 570.24749732 -90.12890625 569.15234375 C-91.75248541 568.10137901 -93.37617881 567.05059075 -95 566 C-95.7307373 565.5270752 -96.46147461 565.05415039 -97.21435547 564.56689453 C-99.99814585 562.76539269 -102.78210414 560.96415169 -105.56665039 559.16381836 C-111.90432583 555.06532162 -118.23160034 550.9508981 -124.55859375 546.8359375 C-129.86790866 543.38365569 -135.18179361 539.93856598 -140.5 536.5 C-142.58356369 535.15179714 -144.66703373 533.80344963 -146.75048828 532.45507812 C-148.33963129 531.42715406 -149.9291897 530.39987206 -151.51904297 529.37304688 C-171.02016116 516.77488337 -171.02016116 516.77488337 -179 511 C-177.40507117 507.81014234 -174.11209467 507.35714806 -170.9140625 506.20703125 C-170.1893425 505.94031616 -169.4646225 505.67360107 -168.71794128 505.39880371 C-167.16275195 504.82744831 -165.60638428 504.25929219 -164.04898071 503.69400024 C-161.62513101 502.81254764 -159.20605591 501.91900337 -156.7878418 501.0222168 C-150.13310891 498.56108519 -143.48384762 496.11726494 -136.73046875 493.9375 C-135.87437012 493.65285889 -135.01827148 493.36821777 -134.13623047 493.07495117 C-132.66120238 492.59097211 -131.17746654 492.13221693 -129.68408203 491.70825195 C-124.94668333 490.13282411 -123.4713759 488.22218611 -120.92089844 483.94851685 C-118.13071742 480.41126261 -116.64498878 479.15896852 -112.22514343 478.06962204 C-107.34197532 477.59473124 -102.45807406 477.69655924 -97.55859375 477.77294922 C-95.64524848 477.76598459 -93.73191497 477.75463138 -91.81861877 477.73925972 C-86.70706383 477.71025476 -81.59752975 477.7410953 -76.48614502 477.78456116 C-71.68517078 477.81625591 -66.88504032 477.79368093 -62.08398438 477.77563477 C-48.05596658 477.75438534 -34.02792595 477.81996793 -20 477.875 C27.025 477.936875 27.025 477.936875 75 478 C75.33 354.25 75.66 230.5 76 103 C31.12 103 -13.76 103 -60 103 C-63.96 98.38 -67.92 93.76 -72 89 C-71.07048842 85.28195366 -70.74805202 84.36033673 -68.375 81.71484375 C-67.83794434 81.10753418 -67.30088867 80.50022461 -66.74755859 79.87451172 C-66.17086426 79.23529785 -65.59416992 78.59608398 -65 77.9375 C-63.80349945 76.58568604 -62.60819161 75.23281549 -61.4140625 73.87890625 C-60.82786133 73.21648926 -60.24166016 72.55407227 -59.63769531 71.87158203 C-57.49164696 69.41904675 -55.4261373 66.90722223 -53.375 64.375 C-50.13270852 60.37261089 -46.83606872 56.42404365 -43.5 52.5 C-40.12711398 48.53100848 -36.78823226 44.5398282 -33.5 40.5 C-30.2117626 36.46016548 -26.87268539 32.46916723 -23.5 28.5 C-18.59450956 22.72453689 -13.78192222 16.8783065 -9 11 C-7.31377838 8.93645121 -5.62557579 6.8745333 -3.9375 4.8125 C-3.18339844 3.89082031 -2.42929687 2.96914062 -1.65234375 2.01953125 C-1.10707031 1.35308594 -0.56179688 0.68664062 0 0 Z " fill="#217BE1" transform="translate(512,9)"/>
<path d="M0 0 C10.26914902 -0.28125896 20.27515411 0.59318494 30.45751953 1.73730469 C32.17550655 1.92519443 33.8935461 2.11260437 35.6116333 2.29957581 C41.20341162 2.91148954 46.7932873 3.53974645 52.3828125 4.171875 C53.33782575 4.27981542 54.292839 4.38775583 55.27679205 4.49896717 C64.29916195 5.52004511 73.3206606 6.54858178 82.34042549 7.59243393 C93.82767833 8.92122389 105.3177212 10.21474424 116.81417763 11.46147037 C124.928495 12.34443245 133.03758518 13.26798451 141.14394081 14.221246 C145.97346133 14.78804341 150.80343687 15.33704916 155.63983536 15.84212494 C160.18845186 16.31796899 164.72848737 16.84416972 169.2669754 17.40827751 C170.92442609 17.60558113 172.58411236 17.78512398 174.24562454 17.94465065 C183.087197 18.80455095 189.25327419 19.99244469 195.2975769 26.86578369 C196.90402029 28.88005085 198.47401472 30.9241143 200 33 C201.47283998 34.81764481 202.95099524 36.63101339 204.4375 38.4375 C205.15808594 39.33339844 205.87867188 40.22929688 206.62109375 41.15234375 C209.7972857 44.95438633 213.17270822 48.54903752 216.55834961 52.16381836 C220.4599667 56.35329526 224.07324797 60.72172936 227.65625 65.1875 C230.8110622 68.97327464 234.17013802 72.54733434 237.53881836 76.14208984 C241.62278912 80.52587983 245.42562494 85.07052367 249.16015625 89.7578125 C250.87894711 91.94371089 250.87894711 91.94371089 252.55859375 93.4921875 C254 95 254 95 255.39453125 97.328125 C257.23836605 100.39669678 259.38723238 103.00894036 261.6875 105.75 C266 110.89473684 266 110.89473684 266 112 C186.8 112 107.6 112 26 112 C26 236.08 26 360.16 26 488 C86.72 488 147.44 488 210 488 C203.51048724 497.73426914 200.67546335 499.57536246 190.65625 503.1796875 C189.85070679 503.47432892 189.04516357 503.76897034 188.21520996 504.07254028 C185.6452115 505.01154477 183.07274136 505.94354015 180.5 506.875 C177.13474466 508.09972174 173.77044084 509.32704513 170.40625 510.5546875 C169.58930664 510.8524408 168.77236328 511.15019409 167.93066406 511.45697021 C160.53625516 514.15717781 153.15755668 516.90198148 145.86500549 519.8684845 C138.98296486 522.65961592 132.02271798 525.19201412 125.02734375 527.68359375 C123.76358121 528.13550189 122.49990141 528.58764149 121.23629761 529.03999329 C118.54286596 530.00403257 115.84914445 530.96725491 113.15518188 531.92980957 C90.33060748 540.08681924 67.54430557 548.33751722 44.8125 556.75 C25.59348442 563.85846774 6.34720265 570.88444023 -12.9375 577.8125 C-14.10139252 578.23180786 -15.26528503 578.65111572 -16.46444702 579.08312988 C-19.71334728 580.25289994 -22.96378694 581.41827033 -26.21484375 582.58203125 C-27.18266785 582.93088882 -28.15049194 583.2797464 -29.14764404 583.63917542 C-30.02696594 583.95265427 -30.90628784 584.26613312 -31.81225586 584.58911133 C-32.57743027 584.86330399 -33.34260468 585.13749664 -34.13096619 585.41999817 C-36 586 -36 586 -38 586 C-37.30496589 579.59193203 -35.59498408 573.59034715 -33.81640625 567.40625 C-33.48934189 566.25533371 -33.16227753 565.10441742 -32.82530212 563.91862488 C-31.92936349 560.76939853 -31.02935463 557.62137075 -30.12747192 554.47384262 C-29.17419945 551.14339423 -28.22608108 547.81147887 -27.27734375 544.47973633 C-25.67635611 538.86013845 -24.07203072 533.24150273 -22.46533203 527.62353516 C-20.23256865 519.8164574 -18.00574511 512.00769545 -15.78019524 504.19855881 C-14.02133771 498.02786147 -12.2607925 491.85764543 -10.5 485.6875 C-10.13794464 484.41874023 -9.77588928 483.14998047 -9.40286255 481.84277344 C-8.34233461 478.12801369 -7.28083672 474.41353311 -6.21875 470.69921875 C-5.87935898 469.5117807 -5.53996796 468.32434265 -5.19029236 467.10092163 C-3.30132611 460.50410416 -1.39437663 453.91284764 0.53125 447.32666016 C0.74096184 446.60841599 0.95067368 445.89017183 1.16674042 445.1501627 C2.1853652 441.66151736 3.20649557 438.17364892 4.23254395 434.68717957 C4.59473022 433.44825455 4.9569165 432.20932953 5.33007812 430.93286133 C5.81450378 429.28390617 5.81450378 429.28390617 6.30871582 427.60163879 C7.0856001 425.12649742 7.0856001 425.12649742 7 423 C5.651491 421.70166583 5.651491 421.70166583 3.84375 420.41796875 C3.15925781 419.90492188 2.47476563 419.391875 1.76953125 418.86328125 C1.02058594 418.31027344 0.27164063 417.75726563 -0.5 417.1875 C-6.43148958 412.73639894 -12.27369797 408.21226938 -18 403.5 C-23.41801955 399.05302126 -28.91341298 394.73320768 -34.5 390.5 C-40.85498105 385.68436564 -47.07557701 380.73104987 -53.24414062 375.67944336 C-61.97552211 368.54221366 -70.95747813 361.73756531 -80 355 C-79.41121799 351.35794543 -78.41946818 348.51109174 -76.69921875 345.25390625 C-76.22315186 344.34616455 -75.74708496 343.43842285 -75.2565918 342.50317383 C-74.7387915 341.53275146 -74.22099121 340.5623291 -73.6875 339.5625 C-73.14843018 338.54115967 -72.60936035 337.51981934 -72.05395508 336.4675293 C-68.00459606 328.8204411 -63.87738605 321.21614263 -59.71582031 313.62963867 C-55.57149533 306.07206475 -51.49816372 298.47768567 -47.4375 290.875 C-41.37891585 279.53451877 -35.23197541 268.24605958 -29 257 C-29.80018555 256.89727783 -30.60037109 256.79455566 -31.42480469 256.6887207 C-35.84549583 255.83712485 -39.95437713 254.44947146 -44.203125 252.98046875 C-45.08095642 252.68062576 -45.95878784 252.38078278 -46.86322021 252.07185364 C-48.7163836 251.43775276 -50.56876666 250.80136732 -52.42041016 250.1628418 C-55.22501923 249.19611072 -58.0321802 248.23711574 -60.83984375 247.27929688 C-62.64859505 246.65931362 -64.45719376 246.03888496 -66.265625 245.41796875 C-67.09201477 245.13551804 -67.91840454 244.85306732 -68.76983643 244.5620575 C-74.58782001 242.55115426 -80.30284658 240.33050378 -86 238 C-85.42263548 232.950082 -84.32162228 228.59717362 -82.578125 223.7890625 C-82.32639526 223.08962524 -82.07466553 222.39018799 -81.81530762 221.66955566 C-80.96698513 219.31885468 -80.10862894 216.97195427 -79.25 214.625 C-78.63142279 212.91925784 -78.01327218 211.21336093 -77.39550781 209.50732422 C-75.27643218 203.66686272 -73.13994506 197.83284264 -71 192 C-70.60458008 190.92218262 -70.20916016 189.84436523 -69.80175781 188.73388672 C-64.53082629 174.37362879 -59.23717774 160.02177772 -53.93804932 145.67190552 C-49.97602309 134.9406747 -46.02967314 124.20373068 -42.08828735 113.46490479 C-39.13130981 105.40898385 -36.17157556 97.35407474 -33.21209717 89.29907227 C-32.3753357 87.02158444 -31.53862846 84.74407669 -30.70196533 82.46655273 C-9.0992319 23.66417289 -9.0992319 23.66417289 0 0 Z " fill="#F23464" transform="translate(186,0)"/>
<path d="M0 0 C4.22068452 0.54163748 6.99701541 3.09387477 10.1875 5.6875 C10.79335938 6.17154297 11.39921875 6.65558594 12.0234375 7.15429688 C17.62014792 11.6441528 23.14610849 16.2218693 28.67163086 20.79882812 C33.14560589 24.49835418 37.66703964 28.12411958 42.25 31.6875 C47.31280194 35.62523484 52.22992493 39.70085162 57.10205078 43.87133789 C61.610893 47.7130904 66.24328981 51.37860273 70.91455078 55.02001953 C75.34056429 58.47203951 79.69957129 61.99726127 84.03515625 65.5625 C92.68265979 72.67191002 101.35563305 79.74544048 110.1875 86.625 C115.27355768 90.58870134 120.21633658 94.68989892 125.11499023 98.88208008 C129.47674653 102.59808865 133.95679796 106.1403162 138.47949219 109.6574707 C144.05722951 114.00998249 149.50994028 118.50789657 154.96166992 123.01660156 C158.64120884 126.05878953 162.32813014 129.08755662 166.0625 132.0625 C166.805 132.65546875 167.5475 133.2484375 168.3125 133.859375 C169.85762786 135.09008731 171.40384461 136.31944108 172.953125 137.54492188 C175.16137275 139.2944419 177.36220687 141.05299047 179.5625 142.8125 C180.27865479 143.37654541 180.99480957 143.94059082 181.73266602 144.52172852 C182.39967529 145.05725342 183.06668457 145.59277832 183.75390625 146.14453125 C184.65604858 146.86153198 184.65604858 146.86153198 185.57641602 147.59301758 C187 149 187 149 188 152 C186.5859375 154.171875 186.5859375 154.171875 184.375 156.75 C183.54484375 157.72710937 182.7146875 158.70421875 181.859375 159.7109375 C180.90714647 160.80807037 179.95397708 161.90438718 179 163 C177.96325207 164.20027075 176.92680314 165.40079982 175.890625 166.6015625 C173.68726625 169.15019395 171.47789642 171.69347838 169.265625 174.234375 C164.9094899 179.24572196 160.62929226 184.32019691 156.3515625 189.3984375 C154.9668453 191.03928736 153.57781109 192.67638805 152.1875 194.3125 C145.51953536 202.16259687 138.92319805 210.06674782 132.51171875 218.12890625 C131.70347656 219.13824219 130.89523437 220.14757812 130.0625 221.1875 C129.33160156 222.10917969 128.60070312 223.03085938 127.84765625 223.98046875 C127.23792969 224.64691406 126.62820313 225.31335938 126 226 C125.34 226 124.68 226 124 226 C123.7421875 226.56203125 123.484375 227.1240625 123.21875 227.703125 C121.85830223 230.26704579 120.27211038 232.45226365 118.5 234.75 C117.8915625 235.54921875 117.283125 236.3484375 116.65625 237.171875 C116.1096875 237.77515625 115.563125 238.3784375 115 239 C114.34 239 113.68 239 113 239 C112.690625 239.61875 112.38125 240.2375 112.0625 240.875 C111.375 242.25 110.6875 243.625 110 245 C109.34 245 108.68 245 108 245 C107.71125 245.598125 107.4225 246.19625 107.125 246.8125 C106 249 106 249 104 252 C103.34 252 102.68 252 102 252 C101.690625 252.61875 101.38125 253.2375 101.0625 253.875 C100.375 255.25 99.6875 256.625 99 258 C98.34 258 97.68 258 97 258 C96.690625 258.61875 96.38125 259.2375 96.0625 259.875 C95.375 261.25 94.6875 262.625 94 264 C93.34 264 92.68 264 92 264 C91.71125 264.598125 91.4225 265.19625 91.125 265.8125 C90 268 90 268 88 271 C87.34 271 86.68 271 86 271 C85.690625 271.61875 85.38125 272.2375 85.0625 272.875 C84.375 274.25 83.6875 275.625 83 277 C82.34 277 81.68 277 81 277 C80.731875 277.61875 80.46375 278.2375 80.1875 278.875 C79 281 79 281 76 283 C76 223.6 76 164.2 76 103 C31.78151317 103.55368987 31.78151317 103.55368987 -12.43457031 104.26123047 C-21.01318359 104.32446289 -21.01318359 104.32446289 -25.03729248 104.33621216 C-27.83170162 104.34919048 -30.62233794 104.40134338 -33.41571045 104.47805786 C-58.10352104 105.12695823 -58.10352104 105.12695823 -64.6126709 99.9307251 C-67.90615357 96.59972537 -70.17495347 93.31481156 -72 89 C-71.75472095 85.75034877 -70.52240831 84.10878773 -68.375 81.71484375 C-67.83794434 81.10753418 -67.30088867 80.50022461 -66.74755859 79.87451172 C-66.17086426 79.23529785 -65.59416992 78.59608398 -65 77.9375 C-63.80349945 76.58568604 -62.60819161 75.23281549 -61.4140625 73.87890625 C-60.82786133 73.21648926 -60.24166016 72.55407227 -59.63769531 71.87158203 C-57.49164696 69.41904675 -55.4261373 66.90722223 -53.375 64.375 C-50.13270852 60.37261089 -46.83606872 56.42404365 -43.5 52.5 C-40.12711398 48.53100848 -36.78823226 44.5398282 -33.5 40.5 C-30.2117626 36.46016548 -26.87268539 32.46916723 -23.5 28.5 C-18.59450956 22.72453689 -13.78192222 16.8783065 -9 11 C-7.31377838 8.93645121 -5.62557579 6.8745333 -3.9375 4.8125 C-3.18339844 3.89082031 -2.42929687 2.96914062 -1.65234375 2.01953125 C-1.10707031 1.35308594 -0.56179688 0.68664062 0 0 Z " fill="#2772E5" transform="translate(512,9)"/>
<path d="M0 0 C0.33 0 0.66 0 1 0 C1 40.26 1 80.52 1 122 C61.72 122 122.44 122 185 122 C178.51048724 131.73426914 175.67546335 133.57536246 165.65625 137.1796875 C164.85070679 137.47432892 164.04516357 137.76897034 163.21520996 138.07254028 C160.6452115 139.01154477 158.07274136 139.94354015 155.5 140.875 C152.13474466 142.09972174 148.77044084 143.32704513 145.40625 144.5546875 C144.58930664 144.8524408 143.77236328 145.15019409 142.93066406 145.45697021 C135.53625516 148.15717781 128.15755668 150.90198148 120.86500549 153.8684845 C113.98296486 156.65961592 107.02271798 159.19201412 100.02734375 161.68359375 C98.76358121 162.13550189 97.49990141 162.58764149 96.23629761 163.03999329 C93.54286596 164.00403257 90.84914445 164.96725491 88.15518188 165.92980957 C65.33060748 174.08681924 42.54430557 182.33751722 19.8125 190.75 C0.59348442 197.85846774 -18.65279735 204.88444023 -37.9375 211.8125 C-39.10139252 212.23180786 -40.26528503 212.65111572 -41.46444702 213.08312988 C-44.71334728 214.25289994 -47.96378694 215.41827033 -51.21484375 216.58203125 C-52.18266785 216.93088882 -53.15049194 217.2797464 -54.14764404 217.63917542 C-55.02696594 217.95265427 -55.90628784 218.26613312 -56.81225586 218.58911133 C-57.57743027 218.86330399 -58.34260468 219.13749664 -59.13096619 219.41999817 C-61 220 -61 220 -63 220 C-62.30496589 213.59193203 -60.59498408 207.59034715 -58.81640625 201.40625 C-58.48934189 200.25533371 -58.16227753 199.10441742 -57.82530212 197.91862488 C-56.92936349 194.76939853 -56.02935463 191.62137075 -55.12747192 188.47384262 C-54.17419945 185.14339423 -53.22608108 181.81147887 -52.27734375 178.47973633 C-50.67635611 172.86013845 -49.07203072 167.24150273 -47.46533203 161.62353516 C-45.23256865 153.8164574 -43.00574511 146.00769545 -40.78019524 138.19855881 C-39.02133771 132.02786147 -37.2607925 125.85764543 -35.5 119.6875 C-35.13794464 118.41874023 -34.77588928 117.14998047 -34.40286255 115.84277344 C-32.30352395 108.48932404 -30.19728746 101.13789387 -28.08544922 93.7880249 C-27.13330434 90.46520846 -26.1867296 87.1408913 -25.24251556 83.81581783 C-24.45109493 81.03328071 -23.65463007 78.2522022 -22.85719299 75.47138405 C-22.30308297 73.53339177 -21.75487408 71.5937152 -21.20690918 69.65397644 C-19.17442529 62.5859729 -16.85762657 55.74578249 -14.09887695 48.92677307 C-12.62887611 45.01154047 -11.66244431 41.04025532 -10.7109375 36.97363281 C-9.49499805 31.88773222 -7.98147427 26.88872295 -6.5 21.875 C-6.20480469 20.86824219 -5.90960938 19.86148437 -5.60546875 18.82421875 C-3.76072354 12.54233306 -1.8884451 6.26887683 0 0 Z " fill="#9351A0" transform="translate(211,366)"/>
<path d="M0 0 C4.86189161 0.6628773 9.3706219 1.98257311 14.00390625 3.546875 C14.76364243 3.79995422 15.5233786 4.05303345 16.30613708 4.31378174 C17.91127577 4.84960557 19.51567999 5.38763406 21.11938477 5.92773438 C23.52892129 6.7386986 25.94096939 7.5417901 28.35351562 8.34375 C29.92463726 8.8693193 31.49560554 9.39534732 33.06640625 9.921875 C33.76794327 10.15541687 34.46948029 10.38895874 35.192276 10.62957764 C41.87110125 12.886151 48.43207891 15.44121068 55 18 C55.18747376 29.39833023 55.328557 40.79627873 55.41449738 52.19585133 C55.45579823 57.49237819 55.51157132 62.78783123 55.60351562 68.08374023 C56.34392226 111.89158529 56.34392226 111.89158529 47.94689941 133.50216675 C46.64661879 136.93218701 45.69727558 140.38424178 44.7578125 143.9296875 C44.47679687 144.94804687 44.19578125 145.96640625 43.90625 147.015625 C43.36193944 149.00780165 42.81767189 150.99999004 42.2734375 152.9921875 C42.00015625 153.9821875 41.726875 154.9721875 41.4453125 155.9921875 C41.21344238 156.84151855 40.98157227 157.69084961 40.74267578 158.56591797 C39.96591714 161.11170483 39.02179373 163.54341701 38 166 C32.93721903 164.44222124 29.47901175 161.34825691 25.5 158 C24.06493419 156.81243271 22.62872221 155.62624919 21.19140625 154.44140625 C20.48129395 153.85504395 19.77118164 153.26868164 19.03955078 152.66455078 C16.21644151 150.36050972 13.33589159 148.14631143 10.4375 145.9375 C5.82130486 142.41715438 1.27053089 138.82966187 -3.25 135.1875 C-8.58289455 130.89328369 -13.98267887 126.70057583 -19.4375 122.5625 C-25.92413317 117.64147788 -32.28404624 112.58743384 -38.56030273 107.40063477 C-42.59247908 104.08217435 -46.71973595 100.99288386 -51 98 C-50.41121799 94.35794543 -49.41946818 91.51109174 -47.69921875 88.25390625 C-46.98511841 86.8922937 -46.98511841 86.8922937 -46.2565918 85.50317383 C-45.7387915 84.53275146 -45.22099121 83.5623291 -44.6875 82.5625 C-44.14843018 81.54115967 -43.60936035 80.51981934 -43.05395508 79.4675293 C-39.00459606 71.8204411 -34.87738605 64.21614263 -30.71582031 56.62963867 C-26.57149533 49.07206475 -22.49816372 41.47768567 -18.4375 33.875 C-12.37891585 22.53451877 -6.23197541 11.24605958 0 0 Z " fill="#F17A19" transform="translate(157,257)"/>
<path d="M0 0 C25.74 0 51.48 0 78 0 C78 9.24 78 18.48 78 28 C70.74 28 63.48 28 56 28 C56 60.67 56 93.34 56 127 C62.93 127 69.86 127 77 127 C77 136.57 77 146.14 77 156 C51.59 156 26.18 156 0 156 C0 146.43 0 136.86 0 127 C7.26 127 14.52 127 22 127 C22 94.33 22 61.66 22 28 C14.74 28 7.48 28 0 28 C0 18.76 0 9.52 0 0 Z " fill="#FBFBFB" transform="translate(271,161)"/>
<path d="M0 0 C11.55 0 23.1 0 35 0 C35.13612538 14.55285005 35.24636076 29.10529689 35.31087303 43.65864372 C35.34164077 50.41800821 35.38348732 57.17694529 35.45263672 63.93603516 C35.51833597 70.47188923 35.55381238 77.00730176 35.56926346 83.54346085 C35.58025953 86.02388575 35.60172954 88.5042894 35.63438034 90.98452377 C35.87652391 110.15940092 34.44614165 129.11145839 21.078125 144.1640625 C12.55479477 152.46964342 1.43231561 156.44678285 -10 159 C-10.969375 159.226875 -11.93875 159.45375 -12.9375 159.6875 C-28.72533094 161.29850316 -44.04135335 158.52404833 -57 149 C-61.57271565 145.23533958 -65.83422527 141.20570228 -70 137 C-68.70458671 134.16830031 -67.31597931 132.04539282 -65.171875 129.79296875 C-64.61886719 129.20580078 -64.06585938 128.61863281 -63.49609375 128.01367188 C-62.91988281 127.41103516 -62.34367187 126.80839844 -61.75 126.1875 C-57.36232391 121.56278853 -53.11550415 116.87001324 -49 112 C-48.071875 112.845625 -47.14375 113.69125 -46.1875 114.5625 C-36.81710654 122.59426583 -29.43559776 126.39143033 -17.13671875 126.28125 C-11.83394078 125.80578298 -9.3818521 123.42133359 -5.8125 119.75 C-1.16098782 112.69253324 -0.55569993 106.31772096 -0.56762695 98.0859375 C-0.5574353 97.0216301 -0.54724365 95.95732269 -0.53674316 94.86076355 C-0.50670448 91.36545484 -0.49736094 87.87042063 -0.48828125 84.375 C-0.47142785 81.94261775 -0.45327672 79.51024418 -0.43388367 77.07788086 C-0.38644968 70.69275625 -0.35659741 64.30766683 -0.33044434 57.92242432 C-0.30060566 51.40003514 -0.25408663 44.87776708 -0.20898438 38.35546875 C-0.12302613 25.57036204 -0.05718993 12.7852678 0 0 Z " fill="#FBFBFB" transform="translate(442,159)"/>
<path d="M0 0 C46.53 0 93.06 0 141 0 C141 7.92 141 15.84 141 24 C94.47 24 47.94 24 0 24 C0 16.08 0 8.16 0 0 Z " fill="#F7F7F7" transform="translate(248,417)"/>
<path d="M0 0 C0.33 0 0.66 0 1 0 C1.27328452 5.19240582 1.01852382 8.25186943 -1.16918945 13.06665039 C-2.61567767 16.43272155 -3.62673206 19.93472247 -4.6875 23.4375 C-4.91244141 24.16904297 -5.13738281 24.90058594 -5.36914062 25.65429688 C-5.91619866 27.43514536 -6.45859372 29.21742517 -7 31 C-8.44110157 27.16250573 -7.52469311 24.542076 -6.34765625 20.703125 C-5.98349609 19.49785156 -5.61933594 18.29257812 -5.24414062 17.05078125 C-4.65922852 15.16939453 -4.65922852 15.16939453 -4.0625 13.25 C-3.67160316 11.96772889 -3.2816187 10.68517927 -2.89257812 9.40234375 C-1.93733445 6.26537068 -0.97283319 3.13155414 0 0 Z " fill="#C15D67" transform="translate(211,366)"/>
</svg>
