<?xml version="1.0" encoding="UTF-8"?>
<svg version="1.1" xmlns="http://www.w3.org/2000/svg" width="1038" height="479">
<path d="M0 0 C5.94737437 1.85796437 11.94276032 3.52081719 17.94921875 5.17578125 C26.54127864 7.55972081 35.10252259 10.0294969 43.63671875 12.61328125 C44.62841064 12.91161865 45.62010254 13.20995605 46.6418457 13.51733398 C47.54765381 13.79391846 48.45346191 14.07050293 49.38671875 14.35546875 C50.58554687 14.72067627 50.58554687 14.72067627 51.80859375 15.09326172 C53.63671875 15.73828125 53.63671875 15.73828125 54.63671875 16.73828125 C54.73460468 19.50728297 54.76664998 22.2513379 54.75697327 25.02076721 C54.7582549 26.33899449 54.7582549 26.33899449 54.75956243 27.68385261 C54.76121994 30.65196689 54.75569146 33.62002563 54.75024414 36.58813477 C54.7499623 38.70648192 54.75011994 40.82482917 54.75068665 42.94317627 C54.75097475 48.71360266 54.745076 54.48400847 54.73811269 60.25443006 C54.73188123 66.27760544 54.73127552 72.30078124 54.73008728 78.32395935 C54.72697335 89.73849689 54.71875913 101.1530249 54.70873779 112.56755823 C54.69757857 125.55886865 54.69206669 138.55017952 54.68704236 151.54149354 C54.67657657 178.2737614 54.65897593 205.00602079 54.63671875 231.73828125 C51.46481788 232.69663363 48.2921669 233.65247981 45.11938477 234.60791016 C44.23018593 234.87660416 43.34098709 235.14529816 42.42484283 235.4221344 C36.08024144 237.3308943 29.71412631 239.09172539 23.30419922 240.76855469 C19.34227893 241.81613473 15.3966583 242.91297376 11.453125 244.02734375 C10.77309418 244.21939392 10.09306335 244.41144409 9.39242554 244.60931396 C6.62395317 245.39219105 3.85603845 246.17702915 1.08813477 246.96191406 C-2.26218261 247.91126776 -5.61340964 248.85682374 -8.96826172 249.79003906 C-10.9502652 250.34362036 -12.92985874 250.90626096 -14.90283203 251.49121094 C-22.24225022 253.57027744 -28.03755836 251.34083361 -34.98828125 248.98828125 C-35.71917969 248.74851562 -36.45007813 248.50875 -37.203125 248.26171875 C-42.65523228 246.43493324 -47.92568512 244.2729871 -53.22119141 242.03662109 C-58.50569226 239.85301771 -63.87060585 237.89394199 -69.23828125 235.92578125 C-70.40721924 235.49491211 -71.57615723 235.06404297 -72.78051758 234.62011719 C-81.10556273 231.55540587 -89.441195 228.51992618 -97.78222656 225.49902344 C-103.03226769 223.59537518 -108.26617117 221.65462357 -113.48828125 219.67578125 C-119.3705154 217.44723975 -125.29375366 215.35690716 -131.23828125 213.30078125 C-138.05592152 210.93801041 -144.82316471 208.47190746 -151.55078125 205.86328125 C-152.32341309 205.56494385 -153.09604492 205.26660645 -153.89208984 204.95922852 C-159.23617676 202.86538574 -159.23617676 202.86538574 -160.36328125 201.73828125 C-160.46002691 199.7260008 -160.48515133 197.71026756 -160.48353577 195.69566345 C-160.48491043 194.38168076 -160.4862851 193.06769806 -160.48770142 191.71389771 C-160.48416179 190.24407937 -160.48052698 188.77426125 -160.47680664 187.30444336 C-160.47652478 185.76736961 -160.47668248 184.23029572 -160.47724915 182.69322205 C-160.47753716 178.50745265 -160.47163977 174.32171166 -160.46467519 170.1359489 C-160.45844234 165.76637969 -160.45783791 161.3968099 -160.45664978 157.02723694 C-160.45353626 148.74701078 -160.4453226 140.46679775 -160.43530029 132.18657738 C-160.42413979 122.76230966 -160.41862886 113.33804133 -160.41360486 103.91376865 C-160.40314 84.52193206 -160.38554016 65.13010771 -160.36328125 45.73828125 C-158.92131257 45.08885 -157.47842761 44.44145293 -156.03515625 43.79492188 C-155.23174805 43.43418579 -154.42833984 43.07344971 -153.60058594 42.70178223 C-150.50334344 41.36794684 -147.36558129 40.50277709 -144.11328125 39.64453125 C-141.7778897 38.87491358 -139.66168727 37.99775897 -137.4296875 36.98046875 C-131.16839232 34.14677657 -124.73218752 31.77787903 -118.30078125 29.36328125 C-116.99284825 28.8703073 -115.68498743 28.37714181 -114.37719727 27.88378906 C-111.83012315 26.92338068 -109.28249176 25.9644744 -106.734375 25.00683594 C-104.02538565 23.98743351 -101.31838607 22.96323951 -98.61328125 21.93359375 C-90.60890481 18.89465745 -82.55648013 16.02477725 -74.44897461 13.27246094 C-70.50969439 11.91799444 -66.67883402 10.47322044 -62.88671875 8.74609375 C-58.16510286 6.59751354 -53.33509693 4.90349547 -48.42578125 3.23828125 C-42.26868551 1.11960097 -36.15533497 -1.03355897 -30.140625 -3.53515625 C-20.20505972 -7.59672799 -9.6924018 -3.0334186 0 0 Z M-28.703125 37.76171875 C-29.60224609 37.97828125 -30.50136719 38.19484375 -31.42773438 38.41796875 C-33.30810189 38.8730407 -35.1883165 39.32874499 -37.06835938 39.78515625 C-41.48209126 40.84720072 -45.8905778 41.86257499 -50.34765625 42.7265625 C-55.8428365 43.80143558 -61.25166059 45.16617488 -66.67578125 46.55078125 C-75.45486326 48.77011244 -84.24509162 50.92794441 -93.05981445 53.0012207 C-99.51127103 54.52166137 -105.9306936 56.13013434 -112.36328125 57.73828125 C-112.36328125 99.31828125 -112.36328125 140.89828125 -112.36328125 183.73828125 C-115.33328125 184.72828125 -118.30328125 185.71828125 -121.36328125 186.73828125 C-129.44596867 189.54391486 -137.44420154 192.50100274 -145.36328125 195.73828125 C-147.23774659 196.48961653 -149.11273826 197.23964014 -150.98828125 197.98828125 C-151.82617188 198.3234375 -152.6640625 198.65859375 -153.52734375 199.00390625 C-154.13320312 199.24625 -154.7390625 199.48859375 -155.36328125 199.73828125 C-155.36328125 200.06828125 -155.36328125 200.39828125 -155.36328125 200.73828125 C-144.97037137 202.72931426 -134.57415361 204.27212221 -124.06958008 205.54443359 C-116.05311568 206.51805286 -108.05027082 207.57133628 -100.05078125 208.67578125 C-98.2243811 208.92787354 -98.2243811 208.92787354 -96.36108398 209.18505859 C-89.24551428 210.17569717 -82.13902305 211.2160845 -75.03588867 212.29199219 C-61.8333488 214.29112705 -48.61734037 215.96402318 -35.34326172 217.4128418 C-31.34931494 217.84901508 -27.35640109 218.29460127 -23.36328125 218.73828125 C-23.36328125 158.67828125 -23.36328125 98.61828125 -23.36328125 36.73828125 C-25.1838982 36.73828125 -26.94241948 37.33453118 -28.703125 37.76171875 Z " fill="#D73A00" transform="translate(272.36328125,116.26171875)"/>
<path d="M0 0 C0 0.66 0 1.32 0 2 C0.66 2 1.32 2 2 2 C3.56834809 4.03260293 5.01461843 6.05662566 6.4375 8.1875 C6.83259766 8.76564453 7.22769531 9.34378906 7.63476562 9.93945312 C22.8625664 32.36308654 24.09101288 58.43646206 19.51367188 84.45703125 C17.69912159 93.4400901 14.41916568 101.98003266 10 110 C9.34 110 8.68 110 8 110 C7.88527344 110.58265625 7.77054688 111.1653125 7.65234375 111.765625 C6.95175938 114.16523135 6.01807405 115.72860933 4.5625 117.75 C4.13066406 118.36359375 3.69882812 118.9771875 3.25390625 119.609375 C2.84011719 120.06828125 2.42632813 120.5271875 2 121 C1.34 121 0.68 121 0 121 C0 121.66 0 122.32 0 123 C-10.36413012 132.91920534 -23.67379724 139.46806628 -37.75 141.6875 C-38.54075928 141.8127002 -39.33151855 141.93790039 -40.14624023 142.06689453 C-60.7182691 145.1473552 -80.21847371 141.00132324 -97.5234375 129.296875 C-98.01070313 128.86890625 -98.49796875 128.4409375 -99 128 C-99 127.34 -99 126.68 -99 126 C-99.99 126 -100.98 126 -102 126 C-103.68359375 124.42578125 -103.68359375 124.42578125 -105.4375 122.3125 C-106.0459375 121.58289063 -106.654375 120.85328125 -107.28125 120.1015625 C-108.13203125 119.06128906 -108.13203125 119.06128906 -109 118 C-109.804375 117.071875 -110.60875 116.14375 -111.4375 115.1875 C-113 113 -113 113 -113 110 C-113.66 110 -114.32 110 -115 110 C-127.70448946 83.76872402 -129.92765298 55.15534018 -120.45898438 27.3659668 C-118.31731186 21.43443705 -115.5993477 16.18880324 -112 11 C-111.319375 9.88625 -110.63875 8.7725 -109.9375 7.625 C-107.88081583 4.83852467 -105.76053746 3.0704031 -103 1 C-102.278125 0.2575 -101.55625 -0.485 -100.8125 -1.25 C-99 -3 -99 -3 -97 -3 C-96.67 -3.99 -96.34 -4.98 -96 -6 C-93.51415299 -7.46783347 -91.0957328 -8.7587646 -88.5 -10 C-87.76313965 -10.35594238 -87.0262793 -10.71188477 -86.26708984 -11.07861328 C-84.18583052 -12.07032348 -82.096342 -13.04065705 -80 -14 C-79.19820313 -14.36867187 -78.39640625 -14.73734375 -77.5703125 -15.1171875 C-51.97389965 -25.08848086 -20.14805489 -17.62504265 0 0 Z M-91.2265625 17.6328125 C-98.88803033 27.85935326 -104.73337492 40.0305945 -105 53 C-105.01901367 53.63953613 -105.03802734 54.27907227 -105.05761719 54.93798828 C-105.5603609 73.42824283 -103.47262138 90.75924491 -92 106 C-91.34 106.99 -90.68 107.98 -90 109 C-89.34 109 -88.68 109 -88 109 C-87.67 109.99 -87.34 110.98 -87 112 C-72.6325725 123.24013256 -58.75718096 125.35564654 -41.0234375 123.7265625 C-29.58542079 121.8020708 -18.84185625 115.32980397 -12 106 C-12 105.34 -12 104.68 -12 104 C-11.34 104 -10.68 104 -10 104 C1.77106807 84.46195668 3.42880045 62.1671897 -1 40 C-4.71233844 25.87207235 -12.27022872 14.73458004 -24 6 C-26.0085693 5.03223479 -28.05294524 4.13560947 -30.125 3.3125 C-31.15882813 2.89613281 -32.19265625 2.47976562 -33.2578125 2.05078125 C-39.16360298 -0.21226382 -44.2219681 -0.2557708 -50.5 -0.3125 C-52.05847656 -0.35600586 -52.05847656 -0.35600586 -53.6484375 -0.40039062 C-68.54421554 -0.52111701 -81.75366363 6.14933918 -91.2265625 17.6328125 Z " fill="#D73A00" transform="translate(529,178)"/>
<path d="M0 0 C0 5.61 0 11.22 0 17 C-7 16 -7 16 -9 15 C-14.92935062 14.40706494 -19.19955552 15.58751012 -24 19 C-27.87848542 23.87296886 -29.09857684 27.63137667 -29.31640625 33.76171875 C-29.35451416 34.76936279 -29.39262207 35.77700684 -29.43188477 36.81518555 C-29.47498779 38.09304932 -29.51809082 39.37091309 -29.5625 40.6875 C-29.706875 44.750625 -29.85125 48.81375 -30 53 C-16.47 53 -2.94 53 11 53 C10.9214187 45.17771056 10.9214187 45.17771056 10.81982422 37.35571289 C10.7536874 24.2126207 13.39727115 16.00293695 22.25 6.1875 C26.22449786 2.36382014 30.82489707 0.68281319 36 -1 C36.99 -1.33 37.98 -1.66 39 -2 C41.63772577 -2.12248619 44.23745795 -2.18512384 46.875 -2.1875 C47.58269531 -2.19974609 48.29039062 -2.21199219 49.01953125 -2.22460938 C53.42583162 -2.23691748 55.76944282 -1.69222287 60 0 C60 5.61 60 11.22 60 17 C54 16 54 16 51.7265625 15.54296875 C45.80921816 14.54207965 41.92633142 15.56717177 37 19 C31.84390697 23.54723079 30.90333267 30.08730389 30.48828125 36.69140625 C30.41388777 38.6479006 30.35818539 40.60512487 30.3125 42.5625 C30.209375 46.006875 30.10625 49.45125 30 53 C38.58 53 47.16 53 56 53 C56 58.28 56 63.56 56 69 C47.42 69 38.84 69 30 69 C30 100.68 30 132.36 30 165 C23.73 165 17.46 165 11 165 C11 133.32 11 101.64 11 69 C-2.53 69 -16.06 69 -30 69 C-29.99476318 71.87259521 -29.98952637 74.74519043 -29.98413086 77.70483398 C-29.96759643 87.17241009 -29.95652937 96.63998681 -29.94818783 106.10757351 C-29.94295859 111.85045062 -29.9358602 117.59331301 -29.92456055 123.33618164 C-29.91373313 128.87339995 -29.90772348 134.41060404 -29.90512276 139.94783211 C-29.90326824 142.06544277 -29.89964714 144.18305262 -29.89426994 146.30065727 C-29.88706144 149.25571274 -29.88600898 152.21070871 -29.88647461 155.16577148 C-29.88287933 156.05049637 -29.87928406 156.93522125 -29.87557983 157.84675598 C-29.88594784 163.88594784 -29.88594784 163.88594784 -31 165 C-37.27 165 -43.54 165 -50 165 C-50 133.32 -50 101.64 -50 69 C-55.94 69 -61.88 69 -68 69 C-68 63.72 -68 58.44 -68 53 C-62.06 53 -56.12 53 -50 53 C-50.03480469 51.47890625 -50.06960938 49.9578125 -50.10546875 48.390625 C-50.56517006 20.23740258 -50.56517006 20.23740258 -41 9 C-29.75044539 -2.32405498 -15.17192079 -5.05730693 0 0 Z " fill="#D73A00" transform="translate(628,153)"/>
<path d="M0 0 C10.04091132 8.19627421 13.86663002 17.95696794 16.8125 30.43359375 C16.8125 38.68359375 16.8125 46.93359375 16.8125 55.43359375 C-8.5975 55.43359375 -34.0075 55.43359375 -60.1875 55.43359375 C-57.43512958 72.03516335 -57.43512958 72.03516335 -47.3671875 84.77734375 C-36.86252908 91.64731047 -24.17691941 92.31071198 -11.95800781 90.01464844 C-4.82110093 88.14817934 1.08355711 84.99070741 6.8125 80.43359375 C7.4725 80.43359375 8.1325 80.43359375 8.8125 80.43359375 C8.8125 86.70359375 8.8125 92.97359375 8.8125 99.43359375 C1.12687361 103.82538026 -5.23969354 106.77546364 -13.875 108.12109375 C-14.6695459 108.24556885 -15.4640918 108.37004395 -16.28271484 108.49829102 C-31.55827643 110.76345893 -48.06145897 109.42520172 -61.00390625 100.12890625 C-71.19053898 91.98840061 -78.11047746 79.60795566 -79.95605469 66.71826172 C-81.9594617 46.94201406 -80.44919232 29.89468322 -69.8125 12.80859375 C-69.24789062 11.88820312 -68.68328125 10.9678125 -68.1015625 10.01953125 C-66.06556605 7.2688585 -63.91365975 5.47933268 -61.1875 3.43359375 C-60.630625 2.79421875 -60.07375 2.15484375 -59.5 1.49609375 C-43.78758428 -12.51768243 -16.51586636 -11.82654002 0 0 Z M-49.1875 16.43359375 C-49.1875 17.09359375 -49.1875 17.75359375 -49.1875 18.43359375 C-49.8475 18.43359375 -50.5075 18.43359375 -51.1875 18.43359375 C-56.92230173 24.75944747 -58.07423753 30.98054388 -60.1875 39.43359375 C-41.3775 39.43359375 -22.5675 39.43359375 -3.1875 39.43359375 C-3.1875 28.72498064 -4.60710718 22.75585526 -11.1875 14.43359375 C-17.14189804 9.67007531 -23.32593116 8.00472555 -30.84765625 8.171875 C-37.2716471 8.89041822 -44.94407953 11.34148918 -49.1875 16.43359375 Z " fill="#D73A00" transform="translate(909.1875,211.56640625)"/>
<path d="M0 0 C0 6.6 0 13.2 0 20 C-6.59602649 17.8013245 -6.59602649 17.8013245 -9.875 16 C-18.81135718 11.47269618 -28.39030089 10.57039728 -38.125 13.125 C-44.37806919 15.22267497 -50.30254721 18.45382081 -54 24 C-54.66 24 -55.32 24 -56 24 C-56.2475 24.66 -56.495 25.32 -56.75 26 C-57.99856436 28.99655447 -59.44616306 31.79785342 -61 34.64453125 C-63.70997913 41.0278024 -64.33606215 47.0933708 -64.25 53.9375 C-64.24178223 54.73091797 -64.23356445 55.52433594 -64.22509766 56.34179688 C-64.0204979 67.03378428 -61.92861945 75.90491823 -54.19140625 83.859375 C-52.50907997 85.32100902 -50.78954144 86.673271 -49 88 C-48.34 88.5775 -47.68 89.155 -47 89.75 C-41.57856895 93.13839441 -35.46508505 93.38824049 -29.25 93.375 C-28.46012695 93.37338867 -27.67025391 93.37177734 -26.85644531 93.37011719 C-17.60351931 93.17711137 -10.45894535 90.35514025 -3 85 C-2.34 85 -1.68 85 -1 85 C-1 91.27 -1 97.54 -1 104 C-15.61427358 112.31889419 -31.0202422 113.96033072 -47.14794922 109.77075195 C-55.70833673 107.371917 -63.98537404 103.79134918 -70 97 C-70 96.34 -70 95.68 -70 95 C-70.66 95 -71.32 95 -72 95 C-84.5480161 79.83482625 -86.37322308 61.34280103 -84.68359375 42.46484375 C-83.02412277 30.87844724 -78.27917128 21.16986512 -71 12 C-70.34 12 -69.68 12 -69 12 C-69 11.34 -69 10.68 -69 10 C-50.93889915 -8.42304676 -22.58601801 -10.03823023 0 0 Z " fill="#D83A00" transform="translate(819,209)"/>
<path d="M0 0 C6.6 0 13.2 0 20 0 C20 36.96 20 73.92 20 112 C13.4 112 6.8 112 0 112 C0 75.04 0 38.08 0 0 Z " fill="#D73B00" transform="translate(698,206)"/>
<path d="M0 0 C3.05615384 1.66418093 4.44889357 3.89778714 6 7 C6.57322775 11.69858808 6.41740893 15.14972255 4.3125 19.4375 C0.72882103 23.40860372 -1.66658914 23.87300849 -6.9375 24.375 C-11.21925938 24.26168312 -13.72935008 22.80341422 -17 20 C-19.36594146 16.98880178 -19.35628784 13.80144886 -19.2578125 10.03125 C-18.86061477 6.90181336 -17.69113626 4.6306564 -16 2 C-11.13100781 -1.24599479 -5.68786264 -0.71989239 0 0 Z " fill="#D73A00" transform="translate(715,156)"/>
</svg>
