<?xml version="1.0" encoding="UTF-8"?>
<svg version="1.1" xmlns="http://www.w3.org/2000/svg" width="512" height="512">
<path d="M0 0 C3.35568495 1.7730197 6.42068103 3.91578964 9.52734375 6.08984375 C10.43392227 6.70839737 11.34050079 7.32695099 12.27455139 7.96424866 C15.17061414 9.94337944 18.05438482 11.93956658 20.9375 13.9375 C24.71400093 16.53498949 28.49523735 19.12552511 32.27734375 21.71484375 C33.20088654 22.3489064 34.12442932 22.98296906 35.07595825 23.63624573 C41.08918426 27.74837333 47.18396263 31.68067765 53.39091492 35.49224854 C57.87067936 38.25565454 62.22797624 41.15981027 66.546875 44.16796875 C67.14714005 44.58475388 67.74740509 45.001539 68.36585999 45.43095398 C70.78752343 47.11527046 73.20656233 48.80283779 75.61425781 50.50708008 C77.41743191 51.78050678 79.23094468 53.03782741 81.046875 54.29296875 C82.09713867 55.0305542 83.14740234 55.76813965 84.22949219 56.52807617 C86.80716889 58.21085311 86.80716889 58.21085311 89.22851562 57.84545898 C91.83120534 56.60329877 93.65223275 54.84583229 95.75 52.875 C97.05904297 51.66457031 97.05904297 51.66457031 98.39453125 50.4296875 C99.68423828 49.22699219 99.68423828 49.22699219 101 48 C102.47217947 46.65895585 103.95061931 45.32472549 105.4375 44 C106.05496094 43.443125 106.67242187 42.88625 107.30859375 42.3125 C109 41 109 41 112 40 C112 39.34 112 38.68 112 38 C113.47068414 36.69136629 115.00601318 35.4553144 116.5625 34.25 C121.47967456 30.32388388 126.11110043 26.19239045 130.6875 21.875 C135.08929548 17.72572166 139.49678783 13.61162306 144.08203125 9.6640625 C148.10860344 6.17053958 152.04499809 2.57408984 156 -1 C156.99 -0.67 157.98 -0.34 159 0 C163.62 31.02 168.24 62.04 173 94 C179.6 94.33 186.2 94.66 193 95 C193 105.56 193 116.12 193 127 C194.32 127.66 195.64 128.32 197 129 C199.06240967 130.6550201 201.06897509 132.32879469 203.0625 134.0625 C204.22981968 135.06455869 205.39779826 136.06585029 206.56640625 137.06640625 C207.14664551 137.56414551 207.72688477 138.06188477 208.32470703 138.57470703 C210.6879124 140.58525686 213.09143529 142.54414643 215.5 144.5 C219.5633048 147.80624074 223.57299309 151.16816429 227.5625 154.5625 C231.33088939 157.76739191 235.12246028 160.92687694 239 164 C243.45093163 167.5275617 247.78319977 171.18022043 252.10888672 174.85888672 C257.34875673 179.30992596 262.66554732 183.66285804 268 188 C274.05916982 192.93436458 280.09464714 197.88202752 286 203 C285.38221071 207.66512821 283.43035098 211.47752265 281.29052734 215.60083008 C280.90838577 216.34948837 280.5262442 217.09814667 280.13252258 217.86949158 C279.30451219 219.49073134 278.47392873 221.11065899 277.64106369 222.72941017 C276.32298246 225.2947452 275.01491408 227.86494622 273.70986938 230.43693542 C269.99948436 237.74790306 266.28071694 245.05443167 262.53222656 252.34594727 C260.23795927 256.8104785 257.96344394 261.28459978 255.7012825 265.76547813 C254.83704135 267.46799902 253.96545325 269.16681154 253.08634567 270.86170387 C251.85579791 273.23582269 250.65081003 275.6213789 249.45068359 278.01098633 C249.08398056 278.7037265 248.71727753 279.39646667 248.33946228 280.11019897 C245.94155161 284.97538675 245.75853742 288.68737244 247 294 C247.14445683 294.64890355 247.28891365 295.2978071 247.43774796 295.9663744 C247.93174631 298.04977131 248.47448823 300.11506943 249.03100586 302.18261719 C249.23666137 302.96342966 249.44231688 303.74424213 249.65420437 304.54871559 C250.33613778 307.13277255 251.02544996 309.71479929 251.71484375 312.296875 C252.20337916 314.14169676 252.69145656 315.98663985 253.17910767 317.83169556 C254.21905091 321.76251736 255.26222507 325.69246207 256.30789185 329.62176514 C257.94394079 335.7704228 259.57099173 341.9214404 261.19702148 348.07275391 C266.0872601 366.56214459 271.00378104 385.04425825 275.97087669 403.51315308 C277.24406343 408.251347 278.51214355 412.99091066 279.78004169 417.73052216 C280.95551248 422.12130949 282.14111858 426.50919791 283.33446503 430.89515877 C283.88879132 432.93885133 284.43822279 434.98378275 284.98544312 437.02938843 C285.64248962 439.48512754 286.30738328 441.93878693 286.98184204 444.38980103 C287.2657077 445.46047821 287.54957336 446.5311554 287.84204102 447.63427734 C288.21644066 449.01792984 288.21644066 449.01792984 288.59840393 450.42953491 C289.05195097 453.33251861 288.98200862 455.22734409 288 458 C286.38479614 459.10775757 286.38479614 459.10775757 284.25439453 459.79833984 C283.45052307 460.07049316 282.64665161 460.34264648 281.81842041 460.62304688 C280.9321698 460.89955078 280.04591919 461.17605469 279.1328125 461.4609375 C278.20885681 461.76789551 277.28490112 462.07485352 276.33294678 462.39111328 C273.26950197 463.40465827 270.19748708 464.3892425 267.125 465.375 C264.97202687 466.08304506 262.81985374 466.79352697 260.66845703 467.50634766 C257.35592969 468.6034993 254.04295923 469.69903872 250.72738647 470.78695679 C241.25461359 473.89600463 231.84024757 477.15588822 222.43817139 480.47158813 C202.55517711 487.47952098 182.59669414 494.2623817 162.62451172 501.01123047 C161.53351166 501.38032028 160.4425116 501.7494101 159.31845093 502.12968445 C157.28907578 502.81606915 155.2593417 503.50139404 153.22915649 504.18537903 C147.56721657 506.10043514 141.96613035 508.12065154 136.39550781 510.28875732 C132.7179862 511.38063868 130.10848398 510.69603464 126.5 509.5625 C120.77029672 507.78497117 115.01267642 506.18904179 109.203125 504.6953125 C99.16463391 502.08266226 89.20596081 499.22141489 79.25 496.3125 C77.56516996 495.82203954 75.88027426 495.33180461 74.1953125 494.84179688 C71.82978635 494.15380617 69.46434871 493.46553011 67.09942627 492.77546692 C50.6942759 487.91636624 50.6942759 487.91636624 34.0625 483.9375 C30.62847855 483.21138804 27.47969917 482.04935805 24.20092773 480.7956543 C20.5256764 479.46701935 16.77044182 478.45732087 13 477.4375 C11.86691406 477.12522461 11.86691406 477.12522461 10.7109375 476.80664062 C5.82372513 475.46727572 0.91967508 474.21441559 -4 473 C-6.66666667 472.33333333 -9.33333333 471.66666667 -12 471 C-17.81644829 477.27787843 -23.39829389 483.64491148 -28.77734375 490.3046875 C-31.69616081 493.84420203 -34.75968345 497.23702049 -37.84765625 500.62890625 C-40.94721267 504.04348111 -43.97577785 507.51874107 -47 511 C-50.91391971 510.42079052 -53.61723635 509.25880375 -56.97265625 507.18359375 C-58.42418091 506.29679932 -58.42418091 506.29679932 -59.9050293 505.39208984 C-60.94699463 504.7470752 -61.98895996 504.10206055 -63.0625 503.4375 C-65.31878457 502.06119462 -67.57614779 500.68692347 -69.8359375 499.31640625 C-70.42052231 498.96130981 -71.00510712 498.60621338 -71.60740662 498.24035645 C-78.06529019 494.33104494 -84.62154807 490.59889007 -91.1875 486.875 C-100.48521885 481.59405846 -109.7357081 476.24274956 -118.93017578 470.78369141 C-125.45678113 466.90870561 -132.00329763 463.06954211 -138.5625 459.25 C-147.5505535 454.01505422 -156.5283519 448.76298489 -165.5 443.5 C-177.54932843 436.43228737 -177.54932843 436.43228737 -189.61132812 429.38623047 C-191.59512731 428.22687148 -193.57569903 427.06196927 -195.55273438 425.89111328 C-200.20816647 423.14472612 -204.87389373 420.5237342 -209.7109375 418.109375 C-210.60474121 417.6457959 -211.49854492 417.1822168 -212.41943359 416.70458984 C-214.08233566 415.84780984 -215.76458911 415.02712936 -217.46728516 414.25244141 C-219.82475768 413.01382213 -221.27374891 412.02938418 -223 410 C-223.36258006 407.54918385 -223.36258006 407.54918385 -223.27653122 404.65254211 C-223.24603982 403.57755777 -223.21554843 402.50257343 -223.18413305 401.39501381 C-222.8774399 395.74025784 -222.42200213 390.11099509 -221.88800049 384.47338867 C-221.76831618 383.16330463 -221.64863187 381.8532206 -221.52532077 380.50343704 C-221.19598035 376.90069646 -220.85979446 373.29862402 -220.5223465 369.69663501 C-220.15842717 365.79934405 -219.80086173 361.90146899 -219.44235229 358.00367737 C-218.5775415 348.6167279 -217.70222735 339.23076904 -216.82602513 329.84487724 C-216.41327525 325.42038526 -216.00181884 320.99577305 -215.59029388 316.57116699 C-214.22186214 301.86184993 -212.85119066 287.15274515 -211.47270584 272.44436646 C-211.38468375 271.50512616 -211.29666166 270.56588587 -211.20597224 269.59818375 C-211.07363234 268.1860697 -211.07363234 268.1860697 -210.9386189 266.74542809 C-210.75985643 264.83793551 -210.58109805 262.93044256 -210.40234375 261.02294922 C-210.31367455 260.07677837 -210.22500535 259.13060751 -210.1336492 258.15576482 C-208.69435187 242.79271156 -207.27102836 227.42822291 -205.85444894 212.06305993 C-204.398864 196.27738022 -202.92985219 180.49299697 -201.44734263 164.70982265 C-200.61564096 155.85188808 -199.78978916 146.99349343 -198.97879791 138.13363647 C-198.28899294 130.59835122 -197.58700311 123.06432827 -196.86891177 115.53168374 C-196.50285692 111.68791727 -196.14269401 107.84383287 -195.79808426 103.9980793 C-195.42475237 99.8336396 -195.02379008 95.67233239 -194.61993408 91.51074219 C-194.514857 90.28936648 -194.40977992 89.06799078 -194.30151868 87.80960369 C-194.18905262 86.69783669 -194.07658656 85.5860697 -193.96071243 84.44061279 C-193.87109843 83.47959026 -193.78148444 82.51856773 -193.68915486 81.52842331 C-192.82020996 78.34037277 -191.5348069 77.07637187 -189 75 C-186.446474 73.74596548 -183.96306004 72.64114901 -181.328125 71.59375 C-180.55530685 71.27689743 -179.78248871 70.96004486 -178.98625183 70.6335907 C-176.41111094 69.5799629 -173.83055737 68.54028287 -171.25 67.5 C-169.41237013 66.75025985 -167.57522176 65.99933858 -165.73852539 65.24731445 C-161.83439743 63.64923805 -157.9286325 62.05525482 -154.02197266 60.46337891 C-145.13647439 56.83595903 -136.28188752 53.13444739 -127.42599487 49.43548584 C-122.3735701 47.32560952 -117.31946677 45.21976054 -112.265625 43.11328125 C-110.22200379 42.26123386 -108.178384 41.40918308 -106.13476562 40.55712891 C-100.02278788 38.00917478 -93.90991591 35.46337087 -87.796875 32.91796875 C-68.69571014 24.96401183 -49.59714956 17.00387123 -30.50894165 9.01885986 C-28.59901945 8.21993472 -26.68900681 7.42122572 -24.77890015 6.6227417 C-22.15698513 5.52655941 -19.53545993 4.42945061 -16.9140625 3.33203125 C-15.74749367 2.84451637 -15.74749367 2.84451637 -14.55735779 2.34715271 C-5.18891043 -1.57827865 -5.18891043 -1.57827865 0 0 Z " fill="#000000" transform="translate(223,1)"/>
<path d="M0 0 C3.35568495 1.7730197 6.42068103 3.91578964 9.52734375 6.08984375 C10.43392227 6.70839737 11.34050079 7.32695099 12.27455139 7.96424866 C15.17061414 9.94337944 18.05438482 11.93956658 20.9375 13.9375 C24.71400093 16.53498949 28.49523735 19.12552511 32.27734375 21.71484375 C33.20088654 22.3489064 34.12442932 22.98296906 35.07595825 23.63624573 C41.08918426 27.74837333 47.18396263 31.68067765 53.39091492 35.49224854 C57.87067936 38.25565454 62.22797624 41.15981027 66.546875 44.16796875 C67.14714005 44.58475388 67.74740509 45.001539 68.36585999 45.43095398 C70.78752343 47.11527046 73.20656233 48.80283779 75.61425781 50.50708008 C77.41743191 51.78050678 79.23094468 53.03782741 81.046875 54.29296875 C82.09713867 55.0305542 83.14740234 55.76813965 84.22949219 56.52807617 C86.80716889 58.21085311 86.80716889 58.21085311 89.22851562 57.84545898 C91.83120534 56.60329877 93.65223275 54.84583229 95.75 52.875 C97.05904297 51.66457031 97.05904297 51.66457031 98.39453125 50.4296875 C99.68423828 49.22699219 99.68423828 49.22699219 101 48 C102.47217947 46.65895585 103.95061931 45.32472549 105.4375 44 C106.05496094 43.443125 106.67242187 42.88625 107.30859375 42.3125 C109 41 109 41 112 40 C112 39.34 112 38.68 112 38 C113.47068414 36.69136629 115.00601318 35.4553144 116.5625 34.25 C121.47967456 30.32388388 126.11110043 26.19239045 130.6875 21.875 C135.08929548 17.72572166 139.49678783 13.61162306 144.08203125 9.6640625 C148.10860344 6.17053958 152.04499809 2.57408984 156 -1 C156.99 -0.67 157.98 -0.34 159 0 C163.62 31.35 168.24 62.7 173 95 C74 95 -25 95 -127 95 C-127 200.6 -127 306.2 -127 415 C-21.4 415 84.2 415 193 415 C193 352.96 193 290.92 193 227 C216.21428571 217.71428571 216.21428571 217.71428571 225 215 C226.38701233 218.3017084 227.46242873 221.51893957 228.296875 225 C228.53027588 225.9588208 228.76367676 226.9176416 229.00415039 227.90551758 C229.25028076 228.92669678 229.49641113 229.94787598 229.75 231 C231.70744136 238.9838709 233.76784686 246.91877422 236.0625 254.8125 C238.12624851 261.91317159 240.08716831 269.02823755 241.94132996 276.18635559 C243.4094489 281.82346076 244.94546844 287.43933766 246.50857544 293.05078125 C252.24248218 313.64859696 257.67738141 334.32503434 263.125 355 C263.63174422 356.92291532 264.13849885 358.8458279 264.64526367 360.76873779 C264.8979388 361.7275139 265.15061394 362.68629002 265.41094589 363.67411995 C266.42986637 367.54014427 267.448979 371.4061179 268.46823883 375.27205276 C268.97284537 377.18606733 269.47735724 379.10010685 269.98177338 381.0141716 C272.99787731 392.45727074 276.03489952 403.89425389 279.11751938 415.31961823 C280.27967536 419.63064352 281.43516802 423.94346311 282.59222412 428.25585938 C283.19304201 430.48574895 283.79768276 432.71461234 284.40631104 434.94238281 C285.22825397 437.95131908 286.0374289 440.96340963 286.84375 443.9765625 C287.08209564 444.83375885 287.32044128 445.6909552 287.56600952 446.5741272 C289.74903621 454.83377757 289.74903621 454.83377757 288 458 C285.1943857 459.6033059 282.20765677 460.50160789 279.1328125 461.4609375 C278.20885681 461.76789551 277.28490112 462.07485352 276.33294678 462.39111328 C273.26950197 463.40465827 270.19748708 464.3892425 267.125 465.375 C264.97202687 466.08304506 262.81985374 466.79352697 260.66845703 467.50634766 C257.35592969 468.6034993 254.04295923 469.69903872 250.72738647 470.78695679 C241.25461359 473.89600463 231.84024757 477.15588822 222.43817139 480.47158813 C202.55517711 487.47952098 182.59669414 494.2623817 162.62451172 501.01123047 C161.53351166 501.38032028 160.4425116 501.7494101 159.31845093 502.12968445 C157.28907578 502.81606915 155.2593417 503.50139404 153.22915649 504.18537903 C147.56721657 506.10043514 141.96613035 508.12065154 136.39550781 510.28875732 C132.7179862 511.38063868 130.10848398 510.69603464 126.5 509.5625 C120.77029672 507.78497117 115.01267642 506.18904179 109.203125 504.6953125 C99.16463391 502.08266226 89.20596081 499.22141489 79.25 496.3125 C77.56516996 495.82203954 75.88027426 495.33180461 74.1953125 494.84179688 C71.82978635 494.15380617 69.46434871 493.46553011 67.09942627 492.77546692 C50.6942759 487.91636624 50.6942759 487.91636624 34.0625 483.9375 C30.62847855 483.21138804 27.47969917 482.04935805 24.20092773 480.7956543 C20.5256764 479.46701935 16.77044182 478.45732087 13 477.4375 C11.86691406 477.12522461 11.86691406 477.12522461 10.7109375 476.80664062 C5.82372513 475.46727572 0.91967508 474.21441559 -4 473 C-6.66666667 472.33333333 -9.33333333 471.66666667 -12 471 C-17.81644829 477.27787843 -23.39829389 483.64491148 -28.77734375 490.3046875 C-31.69616081 493.84420203 -34.75968345 497.23702049 -37.84765625 500.62890625 C-40.94721267 504.04348111 -43.97577785 507.51874107 -47 511 C-50.91391971 510.42079052 -53.61723635 509.25880375 -56.97265625 507.18359375 C-58.42418091 506.29679932 -58.42418091 506.29679932 -59.9050293 505.39208984 C-60.94699463 504.7470752 -61.98895996 504.10206055 -63.0625 503.4375 C-65.31878457 502.06119462 -67.57614779 500.68692347 -69.8359375 499.31640625 C-70.42052231 498.96130981 -71.00510712 498.60621338 -71.60740662 498.24035645 C-78.06529019 494.33104494 -84.62154807 490.59889007 -91.1875 486.875 C-100.48521885 481.59405846 -109.7357081 476.24274956 -118.93017578 470.78369141 C-125.45678113 466.90870561 -132.00329763 463.06954211 -138.5625 459.25 C-147.5505535 454.01505422 -156.5283519 448.76298489 -165.5 443.5 C-177.54932843 436.43228737 -177.54932843 436.43228737 -189.61132812 429.38623047 C-191.59512731 428.22687148 -193.57569903 427.06196927 -195.55273438 425.89111328 C-200.20816647 423.14472612 -204.87389373 420.5237342 -209.7109375 418.109375 C-210.60474121 417.6457959 -211.49854492 417.1822168 -212.41943359 416.70458984 C-214.08233566 415.84780984 -215.76458911 415.02712936 -217.46728516 414.25244141 C-219.82475768 413.01382213 -221.27374891 412.02938418 -223 410 C-223.36258006 407.54918385 -223.36258006 407.54918385 -223.27653122 404.65254211 C-223.24603982 403.57755777 -223.21554843 402.50257343 -223.18413305 401.39501381 C-222.8774399 395.74025784 -222.42200213 390.11099509 -221.88800049 384.47338867 C-221.76831618 383.16330463 -221.64863187 381.8532206 -221.52532077 380.50343704 C-221.19598035 376.90069646 -220.85979446 373.29862402 -220.5223465 369.69663501 C-220.15842717 365.79934405 -219.80086173 361.90146899 -219.44235229 358.00367737 C-218.5775415 348.6167279 -217.70222735 339.23076904 -216.82602513 329.84487724 C-216.41327525 325.42038526 -216.00181884 320.99577305 -215.59029388 316.57116699 C-214.22186214 301.86184993 -212.85119066 287.15274515 -211.47270584 272.44436646 C-211.38468375 271.50512616 -211.29666166 270.56588587 -211.20597224 269.59818375 C-211.07363234 268.1860697 -211.07363234 268.1860697 -210.9386189 266.74542809 C-210.75985643 264.83793551 -210.58109805 262.93044256 -210.40234375 261.02294922 C-210.31367455 260.07677837 -210.22500535 259.13060751 -210.1336492 258.15576482 C-208.69435187 242.79271156 -207.27102836 227.42822291 -205.85444894 212.06305993 C-204.398864 196.27738022 -202.92985219 180.49299697 -201.44734263 164.70982265 C-200.61564096 155.85188808 -199.78978916 146.99349343 -198.97879791 138.13363647 C-198.28899294 130.59835122 -197.58700311 123.06432827 -196.86891177 115.53168374 C-196.50285692 111.68791727 -196.14269401 107.84383287 -195.79808426 103.9980793 C-195.42475237 99.8336396 -195.02379008 95.67233239 -194.61993408 91.51074219 C-194.514857 90.28936648 -194.40977992 89.06799078 -194.30151868 87.80960369 C-194.18905262 86.69783669 -194.07658656 85.5860697 -193.96071243 84.44061279 C-193.87109843 83.47959026 -193.78148444 82.51856773 -193.68915486 81.52842331 C-192.82020996 78.34037277 -191.5348069 77.07637187 -189 75 C-186.446474 73.74596548 -183.96306004 72.64114901 -181.328125 71.59375 C-180.55530685 71.27689743 -179.78248871 70.96004486 -178.98625183 70.6335907 C-176.41111094 69.5799629 -173.83055737 68.54028287 -171.25 67.5 C-169.41237013 66.75025985 -167.57522176 65.99933858 -165.73852539 65.24731445 C-161.83439743 63.64923805 -157.9286325 62.05525482 -154.02197266 60.46337891 C-145.13647439 56.83595903 -136.28188752 53.13444739 -127.42599487 49.43548584 C-122.3735701 47.32560952 -117.31946677 45.21976054 -112.265625 43.11328125 C-110.22200379 42.26123386 -108.178384 41.40918308 -106.13476562 40.55712891 C-100.02278788 38.00917478 -93.90991591 35.46337087 -87.796875 32.91796875 C-68.69571014 24.96401183 -49.59714956 17.00387123 -30.50894165 9.01885986 C-28.59901945 8.21993472 -26.68900681 7.42122572 -24.77890015 6.6227417 C-22.15698513 5.52655941 -19.53545993 4.42945061 -16.9140625 3.33203125 C-15.74749367 2.84451637 -15.74749367 2.84451637 -14.55735779 2.34715271 C-5.18891043 -1.57827865 -5.18891043 -1.57827865 0 0 Z " fill="#2BD787" transform="translate(223,1)"/>
<path d="M0 0 C0.77441406 2.35058594 0.77441406 2.35058594 1.515625 5.484375 C1.79422363 6.63687744 2.07282227 7.78937988 2.35986328 8.97680664 C2.6536084 10.22196045 2.94735352 11.46711426 3.25 12.75 C5.38801939 21.57002925 7.57945861 30.35064714 10.125 39.0625 C12.17052999 46.07993384 14.10890286 53.11202643 15.94171143 60.18788147 C17.40971119 65.82447536 18.94560926 71.43984318 20.50857544 77.05078125 C26.24248218 97.64859696 31.67738141 118.32503434 37.125 139 C37.63174422 140.92291532 38.13849885 142.8458279 38.64526367 144.76873779 C38.8979388 145.7275139 39.15061394 146.68629002 39.41094589 147.67411995 C40.42986637 151.54014427 41.448979 155.4061179 42.46823883 159.27205276 C42.97284537 161.18606733 43.47735724 163.10010685 43.98177338 165.0141716 C46.99787731 176.45727074 50.03489952 187.89425389 53.11751938 199.31961823 C54.27967536 203.63064352 55.43516802 207.94346311 56.59222412 212.25585938 C57.19304201 214.48574895 57.79768276 216.71461234 58.40631104 218.94238281 C59.22825397 221.95131908 60.0374289 224.96340963 60.84375 227.9765625 C61.08209564 228.83375885 61.32044128 229.6909552 61.56600952 230.5741272 C63.74903621 238.83377757 63.74903621 238.83377757 62 242 C59.1943857 243.6033059 56.20765677 244.50160789 53.1328125 245.4609375 C52.20885681 245.76789551 51.28490112 246.07485352 50.33294678 246.39111328 C47.26950197 247.40465827 44.19748708 248.3892425 41.125 249.375 C38.97202687 250.08304506 36.81985374 250.79352697 34.66845703 251.50634766 C31.35592969 252.6034993 28.04295923 253.69903872 24.72738647 254.78695679 C15.25461359 257.89600463 5.84024757 261.15588822 -3.56182861 264.47158813 C-23.44482289 271.47952098 -43.40330586 278.2623817 -63.37548828 285.01123047 C-64.46648834 285.38032028 -65.5574884 285.7494101 -66.68154907 286.12968445 C-68.71092422 286.81606915 -70.7406583 287.50139404 -72.77084351 288.18537903 C-78.43278343 290.10043514 -84.03386965 292.12065154 -89.60449219 294.28875732 C-93.2820138 295.38063868 -95.89151602 294.69603464 -99.5 293.5625 C-105.22970328 291.78497117 -110.98732358 290.18904179 -116.796875 288.6953125 C-126.83536609 286.08266226 -136.79403919 283.22141489 -146.75 280.3125 C-148.43483004 279.82203954 -150.11972574 279.33180461 -151.8046875 278.84179688 C-154.17021365 278.15380617 -156.53565129 277.46553011 -158.90057373 276.77546692 C-175.3057241 271.91636624 -175.3057241 271.91636624 -191.9375 267.9375 C-195.37152145 267.21138804 -198.52030083 266.04935805 -201.79907227 264.7956543 C-205.4743236 263.46701935 -209.22955818 262.45732087 -213 261.4375 C-213.75539063 261.22931641 -214.51078125 261.02113281 -215.2890625 260.80664062 C-218.94329216 259.80518078 -222.60168397 258.84889828 -226.28515625 257.9609375 C-229.1922183 257.208953 -231.71237497 256.39809429 -234.4375 255.1875 C-243.64704807 251.39033249 -253.39783823 248.72503625 -263.125 246.625 C-272.39763391 244.58925677 -281.41578162 241.58411037 -290.47558594 238.77294922 C-293.63886054 237.80438758 -296.81432189 236.8918124 -300 236 C-298.75675643 223.56756434 -296.27510392 211.28556117 -294 199 C-207.87 199 -121.74 199 -33 199 C-33 136.96 -33 74.92 -33 11 C-2.44444444 -1.22222222 -2.44444444 -1.22222222 0 0 Z " fill="#F0F44E" transform="translate(449,217)"/>
<path d="M0 0 C15.9946875 -0.0928125 15.9946875 -0.0928125 32.3125 -0.1875 C35.65802002 -0.21481201 39.00354004 -0.24212402 42.45043945 -0.27026367 C45.12971639 -0.27903316 47.80899735 -0.286676 50.48828125 -0.29296875 C51.16940475 -0.30080887 51.85052826 -0.30864899 52.55229187 -0.31672668 C68.00171182 -0.48540157 81.29475995 2.3983181 92.875 13.25 C97.04817119 17.67699555 99.76829117 22.36247046 102 28 C102.36609375 28.89976562 102.7321875 29.79953125 103.109375 30.7265625 C104.25609131 34.94124789 104.34267927 38.83866779 104.3125 43.1875 C104.30686035 44.03175537 104.3012207 44.87601074 104.29541016 45.74584961 C104.05468736 58.15975724 100.30254892 68.16301931 92.125 77.625 C88.57982608 80.94909403 84.47945127 83.10712192 80.1875 85.3125 C79.53604004 85.65039551 78.88458008 85.98829102 78.21337891 86.33642578 C67.34497547 91.62209354 56.18703002 91.25271595 44.375 91.125 C38.97125 91.08375 33.5675 91.0425 28 91 C28 104.2 28 117.4 28 131 C18.76 131 9.52 131 0 131 C0 87.77 0 44.54 0 0 Z " fill="#FEFEFE" transform="translate(126,138)"/>
<path d="M0 0 C0.98742187 0.3403125 1.97484375 0.680625 2.9921875 1.03125 C12.27381859 4.52662252 20.12602444 9.85552077 27 17 C25.70977448 19.7860677 24.30620729 22.00548039 22.28515625 24.3125 C21.76373047 24.91320312 21.24230469 25.51390625 20.70507812 26.1328125 C20.16302734 26.74898437 19.62097656 27.36515625 19.0625 28 C14.35446759 33.35642448 14.35446759 33.35642448 10 39 C6.53230112 37.41336419 3.60098197 35.33403285 0.5 33.125 C-9.70905868 26.32720064 -19.69749796 23.41705956 -32 25 C-40.07151607 27.17680505 -46.23962436 31.00136065 -52 37 C-52.721875 37.7425 -53.44375 38.485 -54.1875 39.25 C-61.94054204 51.0132362 -63.86851476 63.64580991 -61.38671875 77.3984375 C-58.37505676 87.50806938 -52.45569288 96.47120821 -43.25 101.8515625 C-42.13625 102.42003906 -42.13625 102.42003906 -41 103 C-40.360625 103.33773437 -39.72125 103.67546875 -39.0625 104.0234375 C-29.80974198 107.96308838 -16.81671804 107.57604248 -7.5625 104 C-2.34940736 101.48058058 2.1986831 98.16815337 6.72265625 94.57421875 C9 93 9 93 12 93 C13.90112305 94.56054687 13.90112305 94.56054687 16.01171875 96.71875 C16.76904297 97.48574219 17.52636719 98.25273437 18.30664062 99.04296875 C19.09232422 99.85378906 19.87800781 100.66460937 20.6875 101.5 C21.88342773 102.71623047 21.88342773 102.71623047 23.10351562 103.95703125 C25.0758748 105.96482203 27.04091492 107.9792687 29 110 C17.52095784 123.83371748 2.90506291 132.54505651 -15.25390625 134.31762695 C-18.61330816 134.47161613 -21.94967682 134.51921339 -25.3125 134.5 C-26.49730957 134.49355469 -27.68211914 134.48710937 -28.90283203 134.48046875 C-46.41267018 134.11563045 -61.14930808 127.22574294 -73.9453125 115.1796875 C-87.21433512 101.10342396 -93.62627619 83.76118714 -93.4375 64.5625 C-93.42920166 63.46647461 -93.42090332 62.37044922 -93.41235352 61.24121094 C-93.02975511 42.92550346 -84.96131745 26.68481575 -71.83203125 13.88671875 C-52.77185007 -2.5554811 -23.88909783 -8.84253174 0 0 Z " fill="#FCFCFC" transform="translate(335,139)"/>
<path d="M0 0 C3.89409353 1.94704677 6.81755285 4.2404725 10.0625 7.0625 C11.22981968 8.06455869 12.39779826 9.06585029 13.56640625 10.06640625 C14.14664551 10.56414551 14.72688477 11.06188477 15.32470703 11.57470703 C17.6879124 13.58525686 20.09143529 15.54414643 22.5 17.5 C26.5633048 20.80624074 30.57299309 24.16816429 34.5625 27.5625 C38.33088939 30.76739191 42.12246028 33.92687694 46 37 C50.45093163 40.5275617 54.78319977 44.18022043 59.10888672 47.85888672 C64.34875673 52.30992596 69.66554732 56.66285804 75 61 C81.05916982 65.93436458 87.09464714 70.88202752 93 76 C92.37186366 80.67512451 90.43676021 84.55026763 88.33813477 88.71191406 C87.96081207 89.47181641 87.58348938 90.23171875 87.19473267 91.01464844 C85.94963273 93.51802062 84.69583548 96.01691624 83.44140625 98.515625 C82.5728857 100.25468702 81.70472149 101.99392703 80.8368988 103.7333374 C79.01910522 107.37334369 77.19699521 111.01114752 75.37182617 114.64746094 C73.0287089 119.31656862 70.69644423 123.99099947 68.3673563 128.66711807 C66.57791752 132.25681392 64.78279438 135.84364295 62.98591423 139.42961884 C62.12332734 141.15278706 61.26253187 142.8768532 60.40353584 144.60181427 C59.20521417 147.00604344 57.99931193 149.40631282 56.79125977 151.80566406 C56.43534256 152.52357117 56.07942535 153.24147827 55.71272278 153.98114014 C53.22853263 158.88573369 53.22853263 158.88573369 51 160 C48.20203131 151.23580109 45.78812069 142.44026912 43.625 133.5 C41.26447091 123.88291094 38.76724475 114.33077372 35.95361328 104.8359375 C34.40969246 99.5972845 33.1172602 94.34614967 32 89 C22.75026077 92.22356181 13.54385453 95.49443587 4.44140625 99.1171875 C2 100 2 100 0 100 C0 67 0 34 0 0 Z " fill="#0AC5E6" transform="translate(416,128)"/>
<path d="M0 0 C0.99 0.33 1.98 0.66 3 1 C7.62 32.35 12.24 63.7 17 96 C-23.26 96 -63.52 96 -105 96 C-102.35662889 92.69578611 -100.46573093 90.35410521 -97.375 87.75 C-94.25447699 85.0802192 -91.17382081 82.37660872 -88.125 79.625 C-86.87009766 78.49384766 -86.87009766 78.49384766 -85.58984375 77.33984375 C-83.83052991 75.75035809 -82.0727708 74.15915023 -80.31640625 72.56640625 C-79.44886719 71.78136719 -78.58132813 70.99632813 -77.6875 70.1875 C-76.90761719 69.47980469 -76.12773437 68.77210937 -75.32421875 68.04296875 C-73.69501184 66.61090957 -72.02231411 65.22754264 -70.3203125 63.8828125 C-67.92696471 62.08341252 -67.92696471 62.08341252 -66.1875 59.6875 C-63.78965092 56.74157113 -61.18150489 54.43674194 -58.296875 51.98046875 C-54.81914594 48.98181461 -51.46854446 45.84467203 -48.1015625 42.72265625 C-46 41 -46 41 -44 41 C-44 40.34 -44 39.68 -44 39 C-42.52931586 37.69136629 -40.99398682 36.4553144 -39.4375 35.25 C-34.52032544 31.32388388 -29.88889957 27.19239045 -25.3125 22.875 C-20.91070452 18.72572166 -16.50321217 14.61162306 -11.91796875 10.6640625 C-7.89139656 7.17053958 -3.95500191 3.57408984 0 0 Z " fill="#9CE26E" transform="translate(379,0)"/>
<path d="M0 0 C39.6 0 79.2 0 120 0 C120 6.6 120 13.2 120 20 C80.4 20 40.8 20 0 20 C0 13.4 0 6.8 0 0 Z " fill="#FEFEFE" transform="translate(126,356)"/>
<path d="M0 0 C4.74375 -0.0825 9.4875 -0.165 14.375 -0.25 C15.8501709 -0.28641602 17.3253418 -0.32283203 18.84521484 -0.36035156 C27.04699905 -0.42902281 35.13254732 -0.19790591 41.63818359 5.4128418 C46.04812833 10.3501141 47.49866343 15.12101553 47.3046875 21.59765625 C46.50908079 27.87070917 44.09652118 32.51361738 39.125 36.4375 C33.78044777 40.23494501 28.5552794 41.25270159 22.0703125 41.1953125 C20.90773926 41.19031738 19.74516602 41.18532227 18.54736328 41.18017578 C17.0879834 41.16196777 15.62860352 41.14375977 14.125 41.125 C9.46375 41.08375 4.8025 41.0425 0 41 C0 27.47 0 13.94 0 0 Z " fill="#050505" transform="translate(154,165)"/>
<path d="M0 0 C1.25 1.4375 1.25 1.4375 3 4 C3.67869141 4.91458984 3.67869141 4.91458984 4.37109375 5.84765625 C5.92024843 8.38054713 6.71170102 10.02527871 7 13 C4.94106036 17.48978198 2.2178561 21.26374665 -1 25 C-1.33 25 -1.66 25 -2 25 C-2.05421223 21.95809137 -2.09377548 18.91716001 -2.125 15.875 C-2.15013672 14.59109375 -2.15013672 14.59109375 -2.17578125 13.28125 C-2.21306681 8.43412707 -1.89580643 4.55292095 0 0 Z " fill="#48DC7D" transform="translate(3,382)"/>
<path d="M0 0 C0.33 0 0.66 0 1 0 C1 7.26 1 14.52 1 22 C-5.75 17.5 -5.75 17.5 -9 15 C-7.61423779 11.13518578 -5.81080359 8.03192572 -3.4375 4.6875 C-2.81746094 3.80449219 -2.19742188 2.92148437 -1.55859375 2.01171875 C-0.78708984 1.01591797 -0.78708984 1.01591797 0 0 Z " fill="#8AE072" transform="translate(95,267)"/>
</svg>
